<svg width="44" height="41" viewBox="0 0 44 41" fill="none" xmlns="http://www.w3.org/2000/svg">
<path d="M20.2064 34.383C20.5115 36.5881 18.7699 37.8737 16.6362 38.4454C14.5025 39.0172 12.5253 37.6928 12.2202 35.4876L10.8567 26.5354C10.5516 24.3303 12.0344 22.0788 14.1681 21.5071C16.3018 20.9353 20.4157 19.833 18.5841 24.4649C16.7525 29.0968 20.2064 34.383 20.2064 34.383Z" fill="#BE1931"/>
<path d="M38.2014 12.9969C39.9878 19.6638 39.9453 25.4706 38.1042 25.9639C36.2641 26.457 16.9022 25.8495 15.1158 19.1827C13.3292 12.5149 29.7936 2.30884 31.6337 1.81579C33.4748 1.32248 36.4148 6.32915 38.2014 12.9969Z" fill="#CCD6DD"/>
<path d="M38.1043 25.9637C39.9447 25.4706 39.9882 19.665 38.2015 12.9967C36.4147 6.32839 33.4742 1.32242 31.6338 1.81557C29.7933 2.30872 29.7498 8.11424 31.5366 14.7826C33.3233 21.4509 36.2638 26.4569 38.1043 25.9637Z" fill="#66757F"/>
<path d="M22.7231 24.3911L8.94134 27.0486C4.11171 28.3427 1.00588 16.7516 5.83551 15.4575L19.0997 10.8681C16.9783 14.5424 19.0489 22.2698 22.7231 24.3911Z" fill="#DD2E44"/>
<path d="M34.9801 18.3613C35.7803 18.1469 35.9252 16.0928 35.3036 13.7732C34.6821 11.4537 33.5296 9.74721 32.7294 9.96162C31.9292 10.176 31.7844 12.2302 32.4059 14.5497C33.0274 16.8692 34.1799 18.5757 34.9801 18.3613Z" fill="#99AAB5"/>
</svg>
