<svg width="133" height="132" viewBox="0 0 133 132" fill="none" xmlns="http://www.w3.org/2000/svg">
<path d="M97.1803 15.4891C95.2894 17.3652 94.7919 18.6499 94.416 19.3656C91.9099 24.135 88.8911 25.6795 83.8599 20.6879C83.3663 20.1982 68.341 4.61311 65.8576 1.78767C64.2363 -0.0582758 61.7529 -0.623362 59.843 0.800656C58.4 1.87809 44.5215 13.1308 40.7243 17.7796C37.7853 21.3773 37.6866 25.8189 40.4243 28.5389C41.6622 29.767 43.1849 30.2304 44.7948 30.7163C46.8909 31.353 51.4892 30.9725 54.1738 33.636C58.476 37.9042 56.2243 44.6514 50.6918 50.2909C45.0075 55.7798 38.2068 58.0138 33.9046 53.7455C31.2162 51.0783 31.6036 46.5199 30.9618 44.4404C30.472 42.8431 30.005 41.3362 28.7671 40.1043C26.0293 37.3881 21.5525 37.4898 17.9224 40.4019C13.2329 44.1692 1.89466 57.9384 0.808671 59.37C-0.630448 61.2649 -0.0570787 63.7249 1.80352 65.3373C4.65139 67.8011 20.3602 82.7081 20.8538 83.1978C25.8813 88.1856 24.3282 91.1844 19.521 93.6708C18.7996 94.0437 17.5085 94.5335 15.6138 96.4133C10.0623 101.921 10.0623 110.853 15.6138 116.361C21.1652 121.869 30.1682 121.869 35.7197 116.361C37.6106 114.485 38.1081 113.2 38.484 112.484C40.9901 107.715 44.0088 106.17 49.0401 111.162C49.5337 111.652 64.559 127.237 67.0424 130.062C68.6637 131.908 71.1471 132.473 73.057 131.049C74.5 129.972 88.3785 118.719 92.1757 114.07C95.1147 110.473 95.2134 106.031 92.4757 103.311C91.2378 102.083 89.7151 101.62 88.1051 101.134C86.0091 100.497 81.4108 100.877 78.7262 98.2141C74.424 93.9458 76.6757 87.1986 82.2082 81.5591C87.8925 76.0702 94.6932 73.8362 98.9954 78.1045C101.684 80.7717 101.296 85.3301 101.938 87.4096C102.428 89.0069 102.895 90.5138 104.133 91.7457C106.871 94.4619 111.347 94.3602 114.978 91.4481C119.667 87.6808 131.005 73.9116 132.091 72.48C133.53 70.5851 132.957 68.1251 131.096 66.5127C128.249 64.0489 112.54 49.1419 112.046 48.6522C107.019 43.6644 108.572 40.6656 113.379 38.1793C114.1 37.8063 115.391 37.3166 117.286 35.4367C122.838 29.929 122.838 20.9969 117.286 15.4891C111.735 9.97766 102.732 9.97766 97.1803 15.4891Z" fill="#78B159"/>
</svg>
