<svg width="28" height="29" viewBox="0 0 28 29" fill="none" xmlns="http://www.w3.org/2000/svg">
<path d="M14 0C12.5166 0 11.0666 0.439867 9.83322 1.26398C8.59985 2.08809 7.63856 3.25943 7.0709 4.62987C6.50325 6.00032 6.35472 7.50832 6.64411 8.96318C6.9335 10.418 7.64781 11.7544 8.6967 12.8033C9.74559 13.8522 11.082 14.5665 12.5368 14.8559C13.9917 15.1453 15.4997 14.9968 16.8701 14.4291C18.2406 13.8614 19.4119 12.9001 20.236 11.6668C21.0601 10.4334 21.5 8.98336 21.5 7.5C21.5 5.51088 20.7098 3.60322 19.3033 2.1967C17.8968 0.790176 15.9891 0 14 0ZM14 12C13.11 12 12.24 11.7361 11.4999 11.2416C10.7599 10.7471 10.1831 10.0443 9.84254 9.22208C9.50195 8.39981 9.41283 7.49501 9.58647 6.62209C9.7601 5.74918 10.1887 4.94736 10.818 4.31802C11.4474 3.68868 12.2492 3.2601 13.1221 3.08647C13.995 2.91283 14.8998 3.00195 15.7221 3.34254C16.5443 3.68314 17.2471 4.25991 17.7416 4.99993C18.2361 5.73995 18.5 6.60998 18.5 7.5C18.5 8.69347 18.0259 9.83807 17.182 10.682C16.3381 11.5259 15.1935 12 14 12ZM27.5 28.5V27C27.5 24.2152 26.3938 21.5445 24.4246 19.5754C22.4555 17.6062 19.7848 16.5 17 16.5H11C8.21523 16.5 5.54451 17.6062 3.57538 19.5754C1.60625 21.5445 0.5 24.2152 0.5 27V28.5H3.5V27C3.5 25.0109 4.29018 23.1032 5.6967 21.6967C7.10322 20.2902 9.01088 19.5 11 19.5H17C18.9891 19.5 20.8968 20.2902 22.3033 21.6967C23.7098 23.1032 24.5 25.0109 24.5 27V28.5H27.5Z" fill="white"/>
</svg>
