<svg width="24" height="24" viewBox="0 0 24 24" fill="none" xmlns="http://www.w3.org/2000/svg">
<path d="M14.458 4C14.2507 4.35569 14.066 4.72302 13.9049 5.1C12.3217 4.86005 10.709 4.86005 9.12578 5.1C8.96466 4.72302 8.77998 4.35569 8.57274 4C7.08139 4.2442 5.6316 4.68154 4.26317 5.3C1.81616 8.68429 0.706412 12.793 1.13274 16.89C2.72742 18.0389 4.51722 18.9151 6.42317 19.48C6.85717 18.9306 7.2445 18.3487 7.58143 17.74C6.9596 17.5203 6.36192 17.2423 5.79709 16.91C5.952 16.8112 6.09855 16.7009 6.23535 16.58C7.88244 17.3403 9.68714 17.7351 11.5153 17.7351C13.3436 17.7351 15.1483 17.3403 16.7953 16.58C16.9414 16.7 17.0875 16.81 17.2336 16.91C16.6657 17.2396 16.0686 17.5207 15.4493 17.75C15.7722 18.3725 16.1492 18.968 16.5762 19.53C18.4798 18.967 20.2665 18.0906 21.8562 16.94C22.2928 12.8422 21.1821 8.73018 18.7258 5.35C17.3727 4.71874 15.9373 4.26467 14.458 4ZM8.051 14.55C7.52883 14.5141 7.04148 14.2857 6.69127 13.9128C6.34105 13.5399 6.1552 13.0514 6.17274 12.55C6.15256 12.0479 6.33749 11.5581 6.68823 11.1846C7.03897 10.8111 7.52786 10.5835 8.051 10.55C8.57414 10.5835 9.06303 10.8111 9.41377 11.1846C9.76451 11.5581 9.94944 12.0479 9.92926 12.55C9.94944 13.0521 9.76451 13.5419 9.41377 13.9154C9.06303 14.2889 8.57414 14.5165 8.051 14.55ZM14.9797 14.55C14.4575 14.5141 13.9702 14.2857 13.62 13.9128C13.2697 13.5399 13.0839 13.0514 13.1014 12.55C13.0813 12.0479 13.2662 11.5581 13.6169 11.1846C13.9677 10.8111 14.4566 10.5835 14.9797 10.55C15.5038 10.581 15.9943 10.8079 16.3456 11.1819C16.6968 11.556 16.8808 12.0473 16.858 12.55C16.8808 13.0527 16.6968 13.544 16.3456 13.9181C15.9943 14.2921 15.5038 14.519 14.9797 14.55Z" fill="white"/>
</svg>
