<svg width="24" height="24" viewBox="0 0 24 24" fill="none" xmlns="http://www.w3.org/2000/svg">
<path d="M15.5887 8.663C16.4926 8.637 17.3504 8.27461 17.9802 7.65267C18.61 7.03073 18.9623 6.19815 18.9623 5.3315C18.9623 4.46485 18.61 3.63227 17.9802 3.01033C17.3504 2.38839 16.4926 2.026 15.5887 2H8.63496C7.73103 2.026 6.87322 2.38839 6.24342 3.01033C5.61362 3.63227 5.26138 4.46485 5.26138 5.3315C5.26138 6.19815 5.61362 7.03073 6.24342 7.65267C6.87322 8.27461 7.73103 8.637 8.63496 8.663C7.72313 8.67814 6.85398 9.0359 6.21474 9.65921C5.57549 10.2825 5.21729 11.1215 5.21729 11.9955C5.21729 12.8695 5.57549 13.7085 6.21474 14.3318C6.85398 14.9551 7.72313 15.3129 8.63496 15.328C7.72758 15.3493 6.86485 15.7097 6.23096 16.3323C5.59706 16.9548 5.24223 17.7902 5.24223 18.66C5.24223 19.5298 5.59706 20.3652 6.23096 20.9877C6.86485 21.6103 7.72758 21.9707 8.63496 21.992C9.55709 21.9915 10.4413 21.6401 11.0932 21.0151C11.7452 20.3902 12.1116 19.5427 12.1118 18.659V8.663H15.5887Z" fill="white"/>
<path d="M11.8248 15.664C13.745 15.664 15.3016 14.1722 15.3016 12.332C15.3016 10.4918 13.745 9 11.8248 9C9.90455 9 8.3479 10.4918 8.3479 12.332C8.3479 14.1722 9.90455 15.664 11.8248 15.664Z" fill="white"/>
</svg>
