<svg width="24" height="24" viewBox="0 0 24 24" fill="none" xmlns="http://www.w3.org/2000/svg">
<path fill-rule="evenodd" clip-rule="evenodd" d="M12.4946 2C6.74605 2 2.08691 6.465 2.08691 11.974C2.08691 16.38 5.06813 20.119 9.20448 21.439C9.72518 21.529 9.913 21.222 9.913 20.958C9.913 20.721 9.90465 20.093 9.90152 19.262C7.00587 19.864 6.39439 17.924 6.39439 17.924C5.92274 16.772 5.23926 16.465 5.23926 16.465C4.29491 15.846 5.31126 15.86 5.31126 15.86C6.35683 15.93 6.90465 16.888 6.90465 16.888C7.83335 18.412 9.34222 17.972 9.93283 17.717C10.0278 17.072 10.2991 16.632 10.5954 16.383C8.28518 16.132 5.85596 15.276 5.85596 11.453C5.85596 10.366 6.26187 9.474 6.92448 8.778C6.81909 8.525 6.45909 7.51 7.02778 6.138C7.02778 6.138 7.90118 5.869 9.889 7.159C10.738 6.93767 11.6137 6.8247 12.4935 6.823C13.3734 6.82437 14.2491 6.93735 15.098 7.159C17.0869 5.868 17.9593 6.138 17.9593 6.138C18.528 7.51 18.1711 8.525 18.0626 8.778C18.7304 9.474 19.1311 10.365 19.1311 11.453C19.1311 15.286 16.6998 16.128 14.3812 16.375C14.7516 16.683 15.0855 17.291 15.0855 18.221C15.0855 19.555 15.073 20.631 15.073 20.958C15.073 21.225 15.2587 21.535 15.7899 21.437C19.9241 20.115 22.9022 16.379 22.9022 11.974C22.9022 6.465 18.2431 2 12.4946 2Z" fill="white"/>
</svg>
