<svg width="24" height="24" viewBox="0 0 24 24" fill="none" xmlns="http://www.w3.org/2000/svg">
<path d="M20.8174 8.324C20.8068 7.56662 20.6589 6.81678 20.3801 6.108C20.1384 5.51015 19.7692 4.9672 19.2961 4.51383C18.8231 4.06046 18.2565 3.70665 17.6327 3.475C16.9026 3.21236 16.1313 3.07034 15.3516 3.055C14.3478 3.012 14.0295 3 11.4813 3C8.93318 3 8.60657 3 7.61004 3.055C6.83073 3.07045 6.0598 3.21247 5.33004 3.475C4.7061 3.70649 4.13946 4.06024 3.66636 4.51363C3.19326 4.96702 2.82412 5.51006 2.58257 6.108C2.30796 6.80713 2.16009 7.54611 2.14535 8.293C2.10048 9.256 2.08691 9.561 2.08691 12.003C2.08691 14.445 2.08691 14.757 2.14535 15.713C2.161 16.461 2.30813 17.199 2.58257 17.9C2.82453 18.4978 3.19394 19.0406 3.6672 19.4938C4.14045 19.947 4.70715 20.3006 5.33109 20.532C6.05884 20.8052 6.82991 20.9574 7.61109 20.982C8.61596 21.025 8.93422 21.038 11.4824 21.038C14.0306 21.038 14.3572 21.038 15.3537 20.982C16.1333 20.9673 16.9047 20.8256 17.6347 20.563C18.2584 20.3311 18.8248 19.9772 19.2979 19.5238C19.7709 19.0705 20.1402 18.5277 20.3822 17.93C20.6567 17.23 20.8038 16.492 20.8194 15.743C20.8643 14.781 20.8779 14.476 20.8779 12.033C20.8758 9.591 20.8758 9.281 20.8174 8.324ZM11.4751 16.621C8.81005 16.621 6.65109 14.552 6.65109 11.998C6.65109 9.444 8.81005 7.375 11.4751 7.375C12.7545 7.375 13.9815 7.86207 14.8862 8.72905C15.7908 9.59603 16.2991 10.7719 16.2991 11.998C16.2991 13.2241 15.7908 14.4 14.8862 15.267C13.9815 16.1339 12.7545 16.621 11.4751 16.621ZM16.4911 8.282C16.3433 8.28213 16.197 8.25434 16.0605 8.20021C15.9239 8.14608 15.7999 8.06668 15.6954 7.96655C15.5909 7.86643 15.508 7.74754 15.4516 7.61669C15.3951 7.48584 15.3661 7.3456 15.3662 7.204C15.3662 7.0625 15.3953 6.92239 15.4518 6.79166C15.5083 6.66093 15.5911 6.54215 15.6955 6.44209C15.7999 6.34204 15.9239 6.26267 16.0603 6.20852C16.1967 6.15437 16.3429 6.1265 16.4906 6.1265C16.6382 6.1265 16.7844 6.15437 16.9208 6.20852C17.0572 6.26267 17.1812 6.34204 17.2856 6.44209C17.39 6.54215 17.4728 6.66093 17.5293 6.79166C17.5858 6.92239 17.6149 7.0625 17.6149 7.204C17.6149 7.8 17.112 8.282 16.4911 8.282Z" fill="white"/>
<path d="M11.4815 15.006C13.2121 15.006 14.615 13.6615 14.615 12.003C14.615 10.3445 13.2121 9 11.4815 9C9.75085 9 8.3479 10.3445 8.3479 12.003C8.3479 13.6615 9.75085 15.006 11.4815 15.006Z" fill="white"/>
</svg>
