<svg width="24" height="24" viewBox="0 0 24 24" fill="none" xmlns="http://www.w3.org/2000/svg">
<path d="M20.4866 7.978C20.5001 8.153 20.5001 8.327 20.5001 8.501C20.5001 13.826 16.2709 19.962 8.54187 19.962C6.16065 19.962 3.94848 19.301 2.08691 18.153C2.425 18.19 2.75057 18.203 3.10222 18.203C4.99404 18.2074 6.83228 17.6011 8.32065 16.482C7.44353 16.4668 6.59325 16.1895 5.88855 15.6887C5.18385 15.188 4.65991 14.4889 4.38987 13.689C4.6497 13.726 4.91057 13.751 5.18396 13.751C5.56065 13.751 5.93944 13.701 6.29109 13.614C5.33919 13.4298 4.48323 12.9353 3.86878 12.2147C3.25432 11.494 2.91929 10.5916 2.92065 9.661V9.611C3.481 9.91 4.13109 10.097 4.81978 10.122C4.24283 9.75459 3.76975 9.25602 3.44275 8.67079C3.11574 8.08556 2.94498 7.43186 2.9457 6.768C2.9457 6.02 3.15335 5.334 3.51752 4.736C4.57367 5.98102 5.89092 6.99956 7.38396 7.72566C8.877 8.45176 10.5125 8.86922 12.1847 8.951C12.12 8.651 12.0803 8.34 12.0803 8.028C12.08 7.49896 12.1886 6.97506 12.3997 6.48624C12.6108 5.99742 12.9204 5.55327 13.3108 5.17919C13.7011 4.8051 14.1646 4.50841 14.6746 4.30608C15.1847 4.10375 15.7314 3.99974 16.2834 4C17.4939 4 18.5864 4.486 19.3544 5.272C20.2954 5.09762 21.1977 4.76842 22.0215 4.299C21.7079 5.22982 21.0508 6.0191 20.1735 6.519C21.0081 6.42778 21.8237 6.21745 22.5933 5.895C22.0185 6.6981 21.3062 7.40235 20.4866 7.978Z" fill="white"/>
</svg>
