<svg width="428" height="354" viewBox="0 0 428 354" fill="none" xmlns="http://www.w3.org/2000/svg">
<rect width="428" height="194.5" rx="15" fill="#40444B" fill-opacity="0.2"/>
<path d="M16.4957 80.0994C15.9938 80.0994 15.5464 80.0071 15.1534 79.8224C14.7628 79.6378 14.4527 79.3833 14.223 79.0589C13.9934 78.7346 13.8738 78.3629 13.8643 77.9439H15.3558C15.3724 78.2256 15.4908 78.4541 15.7109 78.6293C15.9311 78.8045 16.1927 78.892 16.4957 78.892C16.7372 78.892 16.9503 78.8388 17.1349 78.7322C17.322 78.6233 17.4676 78.473 17.5717 78.2812C17.6783 78.0871 17.7315 77.8646 17.7315 77.6136C17.7315 77.358 17.6771 77.133 17.5682 76.9389C17.4616 76.7448 17.3137 76.5933 17.1243 76.4844C16.9349 76.3755 16.7183 76.3198 16.4744 76.3175C16.2614 76.3175 16.0542 76.3613 15.853 76.4489C15.6541 76.5365 15.4991 76.656 15.3878 76.8075L14.0206 76.5625L14.3651 72.7273H18.8111V73.9844H15.6328L15.4446 75.8061H15.4872C15.6151 75.6262 15.808 75.477 16.0661 75.3587C16.3241 75.2403 16.6129 75.1811 16.9325 75.1811C17.3705 75.1811 17.7611 75.2841 18.1044 75.4901C18.4477 75.696 18.7188 75.9789 18.9176 76.3388C19.1165 76.6963 19.2147 77.1082 19.2124 77.5746C19.2147 78.0646 19.1011 78.5002 18.8714 78.8814C18.6442 79.2602 18.3258 79.5585 17.9162 79.7763C17.509 79.9917 17.0355 80.0994 16.4957 80.0994ZM23.1364 80.1598C22.5256 80.1574 22 80.0071 21.5597 79.7088C21.1217 79.4105 20.7843 78.9785 20.5476 78.4126C20.3132 77.8468 20.1972 77.1662 20.1996 76.3707C20.1996 75.5777 20.3168 74.9018 20.5511 74.343C20.7879 73.7843 21.1252 73.3594 21.5632 73.0682C22.0036 72.7746 22.5279 72.6278 23.1364 72.6278C23.7448 72.6278 24.268 72.7746 24.706 73.0682C25.1463 73.3617 25.4848 73.7879 25.7216 74.3466C25.9583 74.9029 26.0755 75.5777 26.0732 76.3707C26.0732 77.1686 25.9548 77.8504 25.718 78.4162C25.4837 78.982 25.1475 79.4141 24.7095 79.7124C24.2715 80.0107 23.7472 80.1598 23.1364 80.1598ZM23.1364 78.8849C23.553 78.8849 23.8857 78.6754 24.1342 78.2564C24.3828 77.8374 24.5059 77.2088 24.5036 76.3707C24.5036 75.8191 24.4467 75.3598 24.3331 74.9929C24.2218 74.6259 24.0632 74.3501 23.8572 74.1655C23.6536 73.9808 23.4134 73.8885 23.1364 73.8885C22.7221 73.8885 22.3906 74.0956 22.142 74.5099C21.8935 74.9242 21.768 75.5445 21.7656 76.3707C21.7656 76.9295 21.8213 77.3958 21.9325 77.7699C22.0462 78.1416 22.206 78.4209 22.4119 78.608C22.6179 78.7926 22.8594 78.8849 23.1364 78.8849Z" fill="white"/>
<path d="M16.5277 114.599C15.9974 114.599 15.5251 114.508 15.1108 114.326C14.6989 114.141 14.3733 113.888 14.1342 113.566C13.8975 113.242 13.7756 112.868 13.7685 112.444H15.3168C15.3262 112.621 15.3842 112.778 15.4908 112.913C15.5997 113.045 15.7441 113.148 15.924 113.222C16.1039 113.295 16.3063 113.332 16.5312 113.332C16.7656 113.332 16.9728 113.29 17.1527 113.207C17.3326 113.125 17.4735 113.01 17.5753 112.863C17.6771 112.716 17.728 112.547 17.728 112.355C17.728 112.161 17.6735 111.989 17.5646 111.84C17.4581 111.689 17.3042 111.57 17.103 111.485C16.9041 111.4 16.6674 111.357 16.3928 111.357H15.7145V110.228H16.3928C16.6248 110.228 16.8295 110.188 17.0071 110.107C17.187 110.027 17.3267 109.915 17.4261 109.773C17.5256 109.629 17.5753 109.461 17.5753 109.269C17.5753 109.087 17.5315 108.927 17.4439 108.79C17.3587 108.65 17.2379 108.541 17.0817 108.463C16.9278 108.385 16.7479 108.346 16.5419 108.346C16.3336 108.346 16.143 108.384 15.9702 108.46C15.7973 108.533 15.6589 108.638 15.5547 108.776C15.4505 108.913 15.3949 109.074 15.3878 109.259H13.9141C13.9212 108.839 14.0407 108.47 14.2727 108.151C14.5047 107.831 14.8172 107.581 15.2102 107.401C15.6056 107.219 16.0518 107.128 16.549 107.128C17.0509 107.128 17.4901 107.219 17.8665 107.401C18.2429 107.584 18.5353 107.83 18.7436 108.14C18.9543 108.448 19.0585 108.793 19.0561 109.177C19.0585 109.584 18.9318 109.924 18.6761 110.196C18.4228 110.468 18.0926 110.641 17.6854 110.714V110.771C18.2204 110.84 18.6276 111.026 18.907 111.329C19.1887 111.629 19.3284 112.006 19.326 112.458C19.3284 112.872 19.2088 113.241 18.9673 113.562C18.7282 113.884 18.398 114.138 17.9766 114.322C17.5552 114.507 17.0722 114.599 16.5277 114.599ZM23.2828 114.66C22.6721 114.657 22.1465 114.507 21.7061 114.209C21.2682 113.911 20.9308 113.478 20.6941 112.913C20.4597 112.347 20.3437 111.666 20.3461 110.871C20.3461 110.078 20.4632 109.402 20.6976 108.843C20.9344 108.284 21.2717 107.859 21.7097 107.568C22.15 107.275 22.6744 107.128 23.2828 107.128C23.8913 107.128 24.4145 107.275 24.8525 107.568C25.2928 107.862 25.6313 108.288 25.8681 108.847C26.1048 109.403 26.222 110.078 26.2196 110.871C26.2196 111.669 26.1013 112.35 25.8645 112.916C25.6301 113.482 25.294 113.914 24.856 114.212C24.418 114.511 23.8936 114.66 23.2828 114.66ZM23.2828 113.385C23.6995 113.385 24.0321 113.175 24.2807 112.756C24.5293 112.337 24.6524 111.709 24.65 110.871C24.65 110.319 24.5932 109.86 24.4796 109.493C24.3683 109.126 24.2097 108.85 24.0037 108.665C23.8001 108.481 23.5598 108.388 23.2828 108.388C22.8685 108.388 22.5371 108.596 22.2885 109.01C22.04 109.424 21.9145 110.045 21.9121 110.871C21.9121 111.429 21.9677 111.896 22.079 112.27C22.1926 112.642 22.3525 112.921 22.5584 113.108C22.7644 113.293 23.0059 113.385 23.2828 113.385Z" fill="white"/>
<path d="M18.0036 141.727V149H16.4659V143.187H16.4233L14.7578 144.231V142.867L16.5582 141.727H18.0036ZM22.5836 149.16C21.9728 149.157 21.4473 149.007 21.0069 148.709C20.569 148.411 20.2316 147.978 19.9949 147.413C19.7605 146.847 19.6445 146.166 19.6468 145.371C19.6468 144.578 19.764 143.902 19.9984 143.343C20.2351 142.784 20.5725 142.359 21.0105 142.068C21.4508 141.775 21.9752 141.628 22.5836 141.628C23.1921 141.628 23.7153 141.775 24.1532 142.068C24.5936 142.362 24.9321 142.788 25.1689 143.347C25.4056 143.903 25.5228 144.578 25.5204 145.371C25.5204 146.169 25.402 146.85 25.1653 147.416C24.9309 147.982 24.5948 148.414 24.1568 148.712C23.7188 149.011 23.1944 149.16 22.5836 149.16ZM22.5836 147.885C23.0003 147.885 23.3329 147.675 23.5815 147.256C23.8301 146.837 23.9532 146.209 23.9508 145.371C23.9508 144.819 23.894 144.36 23.7804 143.993C23.6691 143.626 23.5105 143.35 23.3045 143.165C23.1009 142.981 22.8606 142.888 22.5836 142.888C22.1693 142.888 21.8379 143.096 21.5893 143.51C21.3407 143.924 21.2153 144.545 21.2129 145.371C21.2129 145.929 21.2685 146.396 21.3798 146.77C21.4934 147.142 21.6532 147.421 21.8592 147.608C22.0652 147.793 22.3066 147.885 22.5836 147.885Z" fill="white"/>
<path d="M45.5 77.0001L405 77.0002" stroke="white" stroke-dasharray="15 15"/>
<path d="M45.5 111L405 111" stroke="white" stroke-dasharray="15 15"/>
<path d="M45.5 145L405 145" stroke="white" stroke-dasharray="15 15"/>
<path d="M86.5 112.25C86.5 110.179 88.1789 108.5 90.25 108.5C92.3211 108.5 94 110.179 94 112.25V166H86.5V112.25Z" fill="#FF6BFA"/>
<path d="M109 144.75C109 142.679 110.679 141 112.75 141C114.821 141 116.5 142.679 116.5 144.75V166H109V144.75Z" fill="#FF6BFA"/>
<path d="M131.5 102.75C131.5 100.679 133.179 99 135.25 99C137.321 99 139 100.679 139 102.75V166H131.5V102.75Z" fill="#FF6BFA"/>
<path d="M154 160.667C154 158.596 155.679 156.917 157.75 156.917C159.821 156.917 161.5 158.596 161.5 160.667V166H154V160.667Z" fill="#FF6BFA"/>
<path d="M176.5 119.75C176.5 117.679 178.179 116 180.25 116C182.321 116 184 117.679 184 119.75V166H176.5V119.75Z" fill="#FF6BFA"/>
<path d="M199 97.75C199 95.6789 200.679 94 202.75 94C204.821 94 206.5 95.6789 206.5 97.75V166H199V97.75Z" fill="#FF6BFA"/>
<path d="M221.5 119.75C221.5 117.679 223.179 116 225.25 116C227.321 116 229 117.679 229 119.75V166H221.5V119.75Z" fill="#FF6BFA"/>
<path d="M244 75.25C244 73.1789 245.679 71.5 247.75 71.5C249.821 71.5 251.5 73.1789 251.5 75.25V166H244V75.25Z" fill="#FF6BFA"/>
<path d="M266.5 119.75C266.5 117.679 268.179 116 270.25 116C272.321 116 274 117.679 274 119.75V166H266.5V119.75Z" fill="#FF6BFA"/>
<path d="M289 116.75C289 114.679 290.679 113 292.75 113C294.821 113 296.5 114.679 296.5 116.75V166H289V116.75Z" fill="#FF6BFA"/>
<path d="M311.5 129.75C311.5 127.679 313.179 126 315.25 126C317.321 126 319 127.679 319 129.75V166H311.5V129.75Z" fill="#FF6BFA"/>
<path d="M334 131.75C334 129.679 335.679 128 337.75 128C339.821 128 341.5 129.679 341.5 131.75V166H334V131.75Z" fill="#FF6BFA"/>
<path d="M356.5 119.75C356.5 117.679 358.179 116 360.25 116C362.321 116 364 117.679 364 119.75V166H356.5V119.75Z" fill="#FF6BFA"/>
<path d="M125.326 30.5V19.5909H129.832C130.649 19.5909 131.354 19.7383 131.947 20.033C132.543 20.3242 133.003 20.7433 133.326 21.2901C133.65 21.8335 133.811 22.478 133.811 23.2237C133.811 23.9801 133.646 24.6229 133.316 25.152C132.985 25.6776 132.517 26.0788 131.909 26.3558C131.302 26.6293 130.583 26.766 129.752 26.766H126.902V24.6886H129.262C129.66 24.6886 129.992 24.6371 130.258 24.5341C130.528 24.4276 130.732 24.2678 130.871 24.0547C131.009 23.8381 131.078 23.5611 131.078 23.2237C131.078 22.8864 131.009 22.6076 130.871 22.3874C130.732 22.1637 130.528 21.9968 130.258 21.8867C129.988 21.7731 129.656 21.7163 129.262 21.7163H127.962V30.5H125.326ZM131.467 25.5142L134.184 30.5H131.308L128.644 25.5142H131.467ZM138.921 30.6545C138.065 30.6545 137.326 30.4858 136.705 30.1484C136.087 29.8075 135.611 29.3228 135.277 28.6942C134.947 28.0621 134.782 27.3111 134.782 26.4411C134.782 25.5959 134.949 24.8572 135.283 24.2251C135.616 23.5895 136.087 23.0959 136.694 22.7443C137.301 22.3892 138.017 22.2116 138.841 22.2116C139.423 22.2116 139.956 22.3022 140.439 22.4833C140.922 22.6644 141.339 22.9325 141.691 23.2876C142.042 23.6428 142.316 24.0813 142.511 24.6033C142.706 25.1218 142.804 25.7166 142.804 26.3878V27.0376H135.693V25.5249H140.38C140.377 25.2479 140.311 25.0011 140.183 24.7844C140.055 24.5678 139.88 24.3991 139.656 24.2784C139.436 24.1541 139.182 24.092 138.894 24.092C138.603 24.092 138.342 24.1577 138.111 24.2891C137.88 24.4169 137.697 24.5927 137.562 24.8164C137.427 25.0366 137.356 25.2869 137.349 25.5675V27.1069C137.349 27.4407 137.415 27.7337 137.546 27.9858C137.678 28.2344 137.864 28.4279 138.106 28.5664C138.347 28.7049 138.635 28.7741 138.969 28.7741C139.199 28.7741 139.409 28.7422 139.597 28.6783C139.785 28.6143 139.947 28.5202 140.082 28.396C140.217 28.2717 140.318 28.119 140.386 27.9379L142.777 28.0071C142.678 28.5433 142.459 29.0103 142.122 29.408C141.788 29.8022 141.35 30.1094 140.806 30.3295C140.263 30.5462 139.634 30.6545 138.921 30.6545ZM151.277 24.8164L148.886 24.8803C148.861 24.7099 148.793 24.5589 148.683 24.4276C148.573 24.2926 148.429 24.1879 148.252 24.1133C148.078 24.0352 147.875 23.9961 147.645 23.9961C147.343 23.9961 147.085 24.0565 146.872 24.1772C146.663 24.2979 146.56 24.4613 146.563 24.6673C146.56 24.8271 146.624 24.9656 146.755 25.0827C146.89 25.1999 147.13 25.294 147.474 25.3651L149.051 25.6634C149.868 25.8196 150.475 26.0788 150.873 26.4411C151.274 26.8033 151.476 27.2827 151.48 27.8793C151.476 28.4403 151.309 28.9286 150.979 29.3441C150.652 29.7596 150.205 30.0827 149.637 30.3136C149.069 30.5408 148.419 30.6545 147.687 30.6545C146.519 30.6545 145.597 30.4148 144.923 29.9354C144.251 29.4524 143.868 28.8061 143.772 27.9964L146.345 27.9325C146.402 28.2308 146.549 28.4581 146.787 28.6143C147.025 28.7706 147.328 28.8487 147.698 28.8487C148.032 28.8487 148.303 28.7866 148.513 28.6623C148.722 28.538 148.829 28.3729 148.832 28.1669C148.829 27.9822 148.747 27.8349 148.587 27.7248C148.428 27.6112 148.177 27.5224 147.836 27.4585L146.409 27.1868C145.588 27.0376 144.978 26.7624 144.576 26.3612C144.175 25.9563 143.976 25.4414 143.98 24.8164C143.976 24.2695 144.122 23.8026 144.417 23.4155C144.711 23.0249 145.13 22.7266 145.674 22.5206C146.217 22.3146 146.858 22.2116 147.597 22.2116C148.705 22.2116 149.578 22.4442 150.217 22.9094C150.857 23.3711 151.21 24.0067 151.277 24.8164ZM152.762 33.5682V22.3182H155.34V23.7191H155.42C155.527 23.4705 155.678 23.2308 155.873 23C156.072 22.7692 156.324 22.581 156.629 22.4354C156.938 22.2862 157.308 22.2116 157.737 22.2116C158.305 22.2116 158.836 22.3608 159.33 22.6591C159.827 22.9574 160.228 23.4173 160.534 24.0387C160.839 24.6602 160.992 25.4521 160.992 26.4144C160.992 27.3413 160.845 28.1172 160.55 28.7422C160.259 29.3672 159.864 29.8359 159.367 30.1484C158.874 30.4609 158.325 30.6172 157.721 30.6172C157.309 30.6172 156.953 30.5497 156.651 30.4148C156.349 30.2798 156.095 30.1023 155.889 29.8821C155.687 29.6619 155.53 29.4258 155.42 29.1737H155.367V33.5682H152.762ZM155.314 26.4091C155.314 26.8494 155.372 27.233 155.489 27.5597C155.61 27.8864 155.782 28.1403 156.006 28.3214C156.233 28.4989 156.505 28.5877 156.821 28.5877C157.141 28.5877 157.412 28.4989 157.636 28.3214C157.86 28.1403 158.028 27.8864 158.142 27.5597C158.259 27.233 158.318 26.8494 158.318 26.4091C158.318 25.9687 158.259 25.587 158.142 25.2638C158.028 24.9407 157.86 24.6903 157.636 24.5128C157.416 24.3352 157.144 24.2464 156.821 24.2464C156.502 24.2464 156.23 24.3335 156.006 24.5075C155.782 24.6815 155.61 24.93 155.489 25.2532C155.372 25.5763 155.314 25.9616 155.314 26.4091ZM166.176 30.6545C165.317 30.6545 164.578 30.4787 163.96 30.1271C163.346 29.772 162.872 29.2784 162.538 28.6463C162.208 28.0107 162.043 27.2738 162.043 26.4357C162.043 25.5941 162.208 24.8572 162.538 24.2251C162.872 23.5895 163.346 23.0959 163.96 22.7443C164.578 22.3892 165.317 22.2116 166.176 22.2116C167.036 22.2116 167.772 22.3892 168.387 22.7443C169.005 23.0959 169.479 23.5895 169.809 24.2251C170.143 24.8572 170.31 25.5941 170.31 26.4357C170.31 27.2738 170.143 28.0107 169.809 28.6463C169.479 29.2784 169.005 29.772 168.387 30.1271C167.772 30.4787 167.036 30.6545 166.176 30.6545ZM166.192 28.6889C166.505 28.6889 166.769 28.593 166.986 28.4013C167.202 28.2095 167.368 27.9432 167.481 27.6023C167.598 27.2614 167.657 26.8672 167.657 26.4197C167.657 25.9652 167.598 25.5675 167.481 25.2266C167.368 24.8857 167.202 24.6193 166.986 24.4276C166.769 24.2358 166.505 24.1399 166.192 24.1399C165.869 24.1399 165.596 24.2358 165.372 24.4276C165.152 24.6193 164.983 24.8857 164.866 25.2266C164.752 25.5675 164.695 25.9652 164.695 26.4197C164.695 26.8672 164.752 27.2614 164.866 27.6023C164.983 27.9432 165.152 28.2095 165.372 28.4013C165.596 28.593 165.869 28.6889 166.192 28.6889ZM174.249 25.8338V30.5H171.644V22.3182H174.121V23.8203H174.211C174.393 23.3196 174.702 22.9272 175.138 22.6431C175.575 22.3555 176.095 22.2116 176.699 22.2116C177.274 22.2116 177.773 22.3413 178.196 22.6005C178.622 22.8562 178.952 23.2148 179.187 23.6765C179.425 24.1346 179.542 24.6708 179.538 25.2852V30.5H176.933V25.7965C176.937 25.342 176.822 24.9869 176.587 24.7312C176.356 24.4755 176.035 24.3477 175.623 24.3477C175.35 24.3477 175.108 24.408 174.899 24.5288C174.693 24.646 174.533 24.8146 174.419 25.0348C174.309 25.255 174.252 25.5213 174.249 25.8338ZM188.294 24.8164L185.902 24.8803C185.877 24.7099 185.81 24.5589 185.7 24.4276C185.59 24.2926 185.446 24.1879 185.268 24.1133C185.094 24.0352 184.892 23.9961 184.661 23.9961C184.359 23.9961 184.102 24.0565 183.889 24.1772C183.679 24.2979 183.576 24.4613 183.58 24.6673C183.576 24.8271 183.64 24.9656 183.772 25.0827C183.907 25.1999 184.146 25.294 184.491 25.3651L186.067 25.6634C186.884 25.8196 187.491 26.0788 187.889 26.4411C188.29 26.8033 188.493 27.2827 188.496 27.8793C188.493 28.4403 188.326 28.9286 187.996 29.3441C187.669 29.7596 187.222 30.0827 186.653 30.3136C186.085 30.5408 185.435 30.6545 184.704 30.6545C183.535 30.6545 182.614 30.4148 181.939 29.9354C181.268 29.4524 180.884 28.8061 180.789 27.9964L183.361 27.9325C183.418 28.2308 183.566 28.4581 183.804 28.6143C184.041 28.7706 184.345 28.8487 184.714 28.8487C185.048 28.8487 185.32 28.7866 185.529 28.6623C185.739 28.538 185.845 28.3729 185.849 28.1669C185.845 27.9822 185.764 27.8349 185.604 27.7248C185.444 27.6112 185.194 27.5224 184.853 27.4585L183.425 27.1868C182.605 27.0376 181.994 26.7624 181.593 26.3612C181.192 25.9563 180.993 25.4414 180.996 24.8164C180.993 24.2695 181.138 23.8026 181.433 23.4155C181.728 23.0249 182.147 22.7266 182.69 22.5206C183.234 22.3146 183.875 22.2116 184.613 22.2116C185.721 22.2116 186.595 22.4442 187.234 22.9094C187.873 23.3711 188.226 24.0067 188.294 24.8164ZM193.603 30.6545C192.748 30.6545 192.009 30.4858 191.387 30.1484C190.77 29.8075 190.294 29.3228 189.96 28.6942C189.63 28.0621 189.464 27.3111 189.464 26.4411C189.464 25.5959 189.631 24.8572 189.965 24.2251C190.299 23.5895 190.77 23.0959 191.377 22.7443C191.984 22.3892 192.7 22.2116 193.523 22.2116C194.106 22.2116 194.638 22.3022 195.121 22.4833C195.604 22.6644 196.022 22.9325 196.373 23.2876C196.725 23.6428 196.998 24.0813 197.194 24.6033C197.389 25.1218 197.487 25.7166 197.487 26.3878V27.0376H190.375V25.5249H195.063C195.059 25.2479 194.994 25.0011 194.866 24.7844C194.738 24.5678 194.562 24.3991 194.338 24.2784C194.118 24.1541 193.864 24.092 193.577 24.092C193.286 24.092 193.025 24.1577 192.794 24.2891C192.563 24.4169 192.38 24.5927 192.245 24.8164C192.11 25.0366 192.039 25.2869 192.032 25.5675V27.1069C192.032 27.4407 192.098 27.7337 192.229 27.9858C192.36 28.2344 192.547 28.4279 192.788 28.5664C193.03 28.7049 193.317 28.7741 193.651 28.7741C193.882 28.7741 194.092 28.7422 194.28 28.6783C194.468 28.6143 194.63 28.5202 194.765 28.396C194.9 28.2717 195.001 28.119 195.068 27.9379L197.46 28.0071C197.36 28.5433 197.142 29.0103 196.805 29.408C196.471 29.8022 196.032 30.1094 195.489 30.3295C194.946 30.5462 194.317 30.6545 193.603 30.6545ZM206.658 22.3182V24.2358H201.496V22.3182H206.658ZM202.578 20.358H205.182V27.9272C205.182 28.087 205.207 28.2166 205.257 28.3161C205.31 28.4119 205.386 28.4812 205.486 28.5238C205.585 28.5629 205.704 28.5824 205.843 28.5824C205.942 28.5824 206.047 28.5735 206.157 28.5558C206.271 28.5344 206.356 28.5167 206.413 28.5025L206.807 30.3828C206.683 30.4183 206.507 30.4627 206.28 30.516C206.056 30.5692 205.788 30.603 205.475 30.6172C204.864 30.6456 204.341 30.5746 203.904 30.4041C203.471 30.2301 203.139 29.9602 202.908 29.5945C202.68 29.2287 202.57 28.7688 202.578 28.2148V20.358ZM211.718 30.6545C210.859 30.6545 210.12 30.4787 209.502 30.1271C208.888 29.772 208.414 29.2784 208.08 28.6463C207.75 28.0107 207.585 27.2738 207.585 26.4357C207.585 25.5941 207.75 24.8572 208.08 24.2251C208.414 23.5895 208.888 23.0959 209.502 22.7443C210.12 22.3892 210.859 22.2116 211.718 22.2116C212.578 22.2116 213.314 22.3892 213.929 22.7443C214.547 23.0959 215.021 23.5895 215.351 24.2251C215.685 24.8572 215.852 25.5941 215.852 26.4357C215.852 27.2738 215.685 28.0107 215.351 28.6463C215.021 29.2784 214.547 29.772 213.929 30.1271C213.314 30.4787 212.578 30.6545 211.718 30.6545ZM211.734 28.6889C212.047 28.6889 212.311 28.593 212.528 28.4013C212.744 28.2095 212.91 27.9432 213.023 27.6023C213.14 27.2614 213.199 26.8672 213.199 26.4197C213.199 25.9652 213.14 25.5675 213.023 25.2266C212.91 24.8857 212.744 24.6193 212.528 24.4276C212.311 24.2358 212.047 24.1399 211.734 24.1399C211.411 24.1399 211.138 24.2358 210.914 24.4276C210.694 24.6193 210.525 24.8857 210.408 25.2266C210.294 25.5675 210.237 25.9652 210.237 26.4197C210.237 26.8672 210.294 27.2614 210.408 27.6023C210.525 27.9432 210.694 28.2095 210.914 28.4013C211.138 28.593 211.411 28.6889 211.734 28.6889ZM230.311 23.5433H227.648C227.612 23.2699 227.539 23.0231 227.429 22.8029C227.319 22.5827 227.174 22.3945 226.992 22.2383C226.811 22.082 226.597 21.9631 226.348 21.8814C226.103 21.7962 225.831 21.7536 225.533 21.7536C225.004 21.7536 224.547 21.8832 224.164 22.1424C223.784 22.4016 223.491 22.7763 223.285 23.2663C223.083 23.7564 222.981 24.3494 222.981 25.0455C222.981 25.7699 223.084 26.3771 223.29 26.8672C223.5 27.3537 223.793 27.7212 224.169 27.9698C224.549 28.2148 224.998 28.3374 225.517 28.3374C225.808 28.3374 226.073 28.3001 226.311 28.2255C226.552 28.1509 226.763 28.0426 226.945 27.9006C227.129 27.755 227.28 27.5792 227.397 27.3732C227.518 27.1637 227.601 26.9276 227.648 26.6648L230.311 26.6808C230.265 27.1637 230.125 27.6396 229.89 28.1083C229.659 28.5771 229.342 29.005 228.937 29.392C228.532 29.7756 228.038 30.081 227.456 30.3082C226.877 30.5355 226.213 30.6491 225.464 30.6491C224.476 30.6491 223.592 30.4325 222.811 29.9993C222.033 29.5625 221.419 28.9268 220.968 28.0923C220.517 27.2578 220.291 26.2422 220.291 25.0455C220.291 23.8452 220.521 22.8278 220.979 21.9933C221.437 21.1587 222.056 20.5249 222.838 20.0916C223.619 19.6584 224.494 19.4418 225.464 19.4418C226.124 19.4418 226.735 19.5341 227.296 19.7188C227.857 19.8999 228.351 20.1662 228.777 20.5178C229.203 20.8658 229.549 21.2937 229.816 21.8015C230.082 22.3093 230.247 22.8899 230.311 23.5433ZM235.639 30.6545C234.78 30.6545 234.041 30.4787 233.423 30.1271C232.809 29.772 232.335 29.2784 232.001 28.6463C231.671 28.0107 231.506 27.2738 231.506 26.4357C231.506 25.5941 231.671 24.8572 232.001 24.2251C232.335 23.5895 232.809 23.0959 233.423 22.7443C234.041 22.3892 234.78 22.2116 235.639 22.2116C236.498 22.2116 237.235 22.3892 237.85 22.7443C238.468 23.0959 238.942 23.5895 239.272 24.2251C239.606 24.8572 239.773 25.5941 239.773 26.4357C239.773 27.2738 239.606 28.0107 239.272 28.6463C238.942 29.2784 238.468 29.772 237.85 30.1271C237.235 30.4787 236.498 30.6545 235.639 30.6545ZM235.655 28.6889C235.968 28.6889 236.232 28.593 236.449 28.4013C236.665 28.2095 236.83 27.9432 236.944 27.6023C237.061 27.2614 237.12 26.8672 237.12 26.4197C237.12 25.9652 237.061 25.5675 236.944 25.2266C236.83 24.8857 236.665 24.6193 236.449 24.4276C236.232 24.2358 235.968 24.1399 235.655 24.1399C235.332 24.1399 235.058 24.2358 234.835 24.4276C234.615 24.6193 234.446 24.8857 234.329 25.2266C234.215 25.5675 234.158 25.9652 234.158 26.4197C234.158 26.8672 234.215 27.2614 234.329 27.6023C234.446 27.9432 234.615 28.2095 234.835 28.4013C235.058 28.593 235.332 28.6889 235.655 28.6889ZM241.107 30.5V22.3182H243.584V23.8203H243.674C243.845 23.3232 244.132 22.9308 244.537 22.6431C244.942 22.3555 245.425 22.2116 245.986 22.2116C246.554 22.2116 247.041 22.3572 247.446 22.6484C247.85 22.9396 248.108 23.3303 248.218 23.8203H248.303C248.456 23.3338 248.754 22.945 249.198 22.6538C249.642 22.359 250.166 22.2116 250.77 22.2116C251.544 22.2116 252.172 22.4602 252.655 22.9574C253.138 23.451 253.38 24.1293 253.38 24.9922V30.5H250.775V25.5888C250.775 25.1804 250.67 24.8697 250.461 24.6566C250.251 24.44 249.979 24.3317 249.646 24.3317C249.287 24.3317 249.005 24.4489 248.799 24.6832C248.596 24.9141 248.495 25.2248 248.495 25.6154V30.5H245.991V25.5621C245.991 25.1822 245.888 24.8821 245.683 24.6619C245.477 24.4418 245.205 24.3317 244.868 24.3317C244.64 24.3317 244.44 24.3867 244.266 24.4968C244.092 24.6033 243.955 24.756 243.855 24.9549C243.76 25.1538 243.712 25.3881 243.712 25.658V30.5H241.107ZM254.994 30.5V22.3182H257.471V23.8203H257.561C257.732 23.3232 258.019 22.9308 258.424 22.6431C258.829 22.3555 259.312 22.2116 259.873 22.2116C260.441 22.2116 260.928 22.3572 261.332 22.6484C261.737 22.9396 261.995 23.3303 262.105 23.8203H262.19C262.343 23.3338 262.641 22.945 263.085 22.6538C263.529 22.359 264.053 22.2116 264.656 22.2116C265.43 22.2116 266.059 22.4602 266.542 22.9574C267.025 23.451 267.266 24.1293 267.266 24.9922V30.5H264.662V25.5888C264.662 25.1804 264.557 24.8697 264.347 24.6566C264.138 24.44 263.866 24.3317 263.532 24.3317C263.174 24.3317 262.891 24.4489 262.685 24.6832C262.483 24.9141 262.382 25.2248 262.382 25.6154V30.5H259.878V25.5621C259.878 25.1822 259.775 24.8821 259.569 24.6619C259.363 24.4418 259.092 24.3317 258.754 24.3317C258.527 24.3317 258.326 24.3867 258.152 24.4968C257.978 24.6033 257.842 24.756 257.742 24.9549C257.646 25.1538 257.598 25.3881 257.598 25.658V30.5H254.994ZM271.187 30.6385C270.665 30.6385 270.201 30.5515 269.797 30.3775C269.395 30.1999 269.077 29.9336 268.843 29.5785C268.612 29.2198 268.497 28.7706 268.497 28.2308C268.497 27.7763 268.577 27.3928 268.737 27.0803C268.896 26.7678 269.116 26.5138 269.397 26.3185C269.678 26.1232 270.001 25.9759 270.366 25.8764C270.732 25.7734 271.123 25.7042 271.538 25.6687C272.004 25.6261 272.378 25.5817 272.662 25.5355C272.946 25.4858 273.152 25.4165 273.28 25.3278C273.412 25.2354 273.477 25.1058 273.477 24.9389V24.9123C273.477 24.6388 273.383 24.4276 273.195 24.2784C273.007 24.1293 272.753 24.0547 272.433 24.0547C272.089 24.0547 271.812 24.1293 271.602 24.2784C271.393 24.4276 271.26 24.6335 271.203 24.8963L268.8 24.8111C268.871 24.3139 269.054 23.87 269.349 23.4794C269.647 23.0852 270.056 22.7763 270.574 22.5526C271.096 22.3253 271.723 22.2116 272.455 22.2116C272.977 22.2116 273.458 22.2738 273.898 22.3981C274.338 22.5188 274.722 22.6964 275.049 22.9308C275.375 23.1616 275.627 23.4457 275.805 23.783C275.986 24.1204 276.077 24.5057 276.077 24.9389V30.5H273.626V29.3601H273.562C273.417 29.6371 273.23 29.8714 273.003 30.0632C272.779 30.255 272.515 30.3988 272.21 30.4947C271.908 30.5906 271.567 30.6385 271.187 30.6385ZM271.991 28.9339C272.272 28.9339 272.524 28.8771 272.748 28.7635C272.975 28.6499 273.156 28.4936 273.291 28.2947C273.426 28.0923 273.493 27.858 273.493 27.5916V26.8139C273.419 26.853 273.328 26.8885 273.222 26.9205C273.119 26.9524 273.005 26.9826 272.881 27.011C272.756 27.0394 272.629 27.0643 272.497 27.0856C272.366 27.1069 272.24 27.1264 272.119 27.1442C271.874 27.1832 271.664 27.2436 271.49 27.3253C271.32 27.407 271.189 27.5135 271.096 27.6449C271.007 27.7727 270.963 27.9254 270.963 28.103C270.963 28.3729 271.059 28.5788 271.251 28.7209C271.446 28.8629 271.693 28.9339 271.991 28.9339ZM280.274 25.8338V30.5H277.669V22.3182H280.146V23.8203H280.237C280.418 23.3196 280.727 22.9272 281.164 22.6431C281.6 22.3555 282.121 22.2116 282.724 22.2116C283.3 22.2116 283.799 22.3413 284.221 22.6005C284.647 22.8562 284.978 23.2148 285.212 23.6765C285.45 24.1346 285.567 24.6708 285.564 25.2852V30.5H282.959V25.7965C282.962 25.342 282.847 24.9869 282.613 24.7312C282.382 24.4755 282.06 24.3477 281.648 24.3477C281.375 24.3477 281.134 24.408 280.924 24.5288C280.718 24.646 280.558 24.8146 280.445 25.0348C280.335 25.255 280.278 25.5213 280.274 25.8338ZM290.165 30.6172C289.561 30.6172 289.012 30.4609 288.519 30.1484C288.025 29.8359 287.631 29.3672 287.336 28.7422C287.041 28.1172 286.894 27.3413 286.894 26.4144C286.894 25.4521 287.047 24.6602 287.352 24.0387C287.657 23.4173 288.057 22.9574 288.551 22.6591C289.048 22.3608 289.582 22.2116 290.154 22.2116C290.584 22.2116 290.951 22.2862 291.256 22.4354C291.562 22.581 291.814 22.7692 292.013 23C292.212 23.2308 292.363 23.4705 292.466 23.7191H292.519V19.5909H295.124V30.5H292.546V29.1737H292.466C292.356 29.4258 292.199 29.6619 291.997 29.8821C291.794 30.1023 291.541 30.2798 291.235 30.4148C290.933 30.5497 290.576 30.6172 290.165 30.6172ZM291.07 28.5877C291.386 28.5877 291.656 28.4989 291.88 28.3214C292.103 28.1403 292.276 27.8864 292.396 27.5597C292.517 27.233 292.578 26.8494 292.578 26.4091C292.578 25.9616 292.517 25.5763 292.396 25.2532C292.279 24.93 292.107 24.6815 291.88 24.5075C291.656 24.3335 291.386 24.2464 291.07 24.2464C290.747 24.2464 290.473 24.3352 290.25 24.5128C290.026 24.6903 289.856 24.9407 289.738 25.2638C289.625 25.587 289.568 25.9687 289.568 26.4091C289.568 26.8494 289.627 27.233 289.744 27.5597C289.861 27.8864 290.03 28.1403 290.25 28.3214C290.473 28.4989 290.747 28.5877 291.07 28.5877ZM303.914 24.8164L301.522 24.8803C301.498 24.7099 301.43 24.5589 301.32 24.4276C301.21 24.2926 301.066 24.1879 300.888 24.1133C300.714 24.0352 300.512 23.9961 300.281 23.9961C299.979 23.9961 299.722 24.0565 299.509 24.1772C299.299 24.2979 299.196 24.4613 299.2 24.6673C299.196 24.8271 299.26 24.9656 299.392 25.0827C299.527 25.1999 299.766 25.294 300.111 25.3651L301.688 25.6634C302.504 25.8196 303.112 26.0788 303.509 26.4411C303.911 26.8033 304.113 27.2827 304.116 27.8793C304.113 28.4403 303.946 28.9286 303.616 29.3441C303.289 29.7596 302.842 30.0827 302.273 30.3136C301.705 30.5408 301.055 30.6545 300.324 30.6545C299.156 30.6545 298.234 30.4148 297.559 29.9354C296.888 29.4524 296.505 28.8061 296.409 27.9964L298.982 27.9325C299.038 28.2308 299.186 28.4581 299.424 28.6143C299.662 28.7706 299.965 28.8487 300.335 28.8487C300.668 28.8487 300.94 28.7866 301.15 28.6623C301.359 28.538 301.466 28.3729 301.469 28.1669C301.466 27.9822 301.384 27.8349 301.224 27.7248C301.064 27.6112 300.814 27.5224 300.473 27.4585L299.045 27.1868C298.225 27.0376 297.614 26.7624 297.213 26.3612C296.812 25.9563 296.613 25.4414 296.616 24.8164C296.613 24.2695 296.759 23.8026 297.053 23.4155C297.348 23.0249 297.767 22.7266 298.31 22.5206C298.854 22.3146 299.495 22.2116 300.233 22.2116C301.341 22.2116 302.215 22.4442 302.854 22.9094C303.493 23.3711 303.847 24.0067 303.914 24.8164Z" fill="white"/>
<rect y="221" width="132.5" height="132.5" rx="15" fill="#40444B" fill-opacity="0.2"/>
<path d="M116.609 287.25C119.699 287.25 122.233 289.762 121.925 292.836C121.013 301.929 117.883 310.691 112.774 318.337C106.626 327.538 97.8872 334.71 87.6629 338.945C77.4385 343.18 66.188 344.288 55.3339 342.129C44.4798 339.97 34.5097 334.641 26.6843 326.816C18.859 318.99 13.5298 309.02 11.3708 298.166C9.21179 287.312 10.3199 276.062 14.5549 265.837C18.79 255.613 25.9618 246.874 35.1635 240.726C42.8091 235.617 51.5708 232.488 60.6637 231.575C63.7386 231.267 66.25 233.801 66.25 236.891C66.25 239.981 63.7352 242.45 60.669 242.836C53.7933 243.7 47.185 246.152 41.3808 250.031C34.0194 254.949 28.282 261.94 24.894 270.12C21.5059 278.299 20.6194 287.3 22.3466 295.983C24.0739 304.666 28.3372 312.642 34.5975 318.903C40.8577 325.163 48.8338 329.426 57.5171 331.153C66.2004 332.881 75.2008 331.994 83.3803 328.606C91.5598 325.218 98.5509 319.481 103.47 312.119C107.348 306.315 109.8 299.707 110.664 292.831C111.05 289.765 113.519 287.25 116.609 287.25Z" fill="#FF6BFA"/>
<path d="M45.7749 290.5L51.9347 278.3V278.203H44.7308V275.227H55.7528V278.225L49.5707 290.5H45.7749ZM63.4209 290.709C62.3073 290.709 61.3179 290.507 60.4529 290.105C59.5878 289.702 58.9042 289.148 58.4021 288.442C57.9049 287.736 57.6464 286.925 57.6265 286.011H61.2061C61.2359 286.572 61.4646 287.025 61.8921 287.368C62.3197 287.706 62.8293 287.875 63.4209 287.875C63.8833 287.875 64.2934 287.773 64.6514 287.569C65.0093 287.365 65.2902 287.08 65.4941 286.712C65.6979 286.339 65.7973 285.911 65.7923 285.429C65.7973 284.937 65.6954 284.507 65.4866 284.139C65.2828 283.771 64.9994 283.485 64.6365 283.281C64.2785 283.072 63.8659 282.968 63.3985 282.968C62.9561 282.963 62.536 283.06 62.1382 283.259C61.7455 283.458 61.4472 283.729 61.2433 284.072L57.9845 283.46L58.6482 275.227H68.4472V278.203H61.6833L61.3328 281.805H61.4223C61.6759 281.382 62.0835 281.034 62.6453 280.761C63.2121 280.482 63.8559 280.343 64.5768 280.343C65.4916 280.343 66.3069 280.557 67.0228 280.984C67.7437 281.407 68.3105 281.994 68.7231 282.744C69.1407 283.495 69.3495 284.355 69.3495 285.325C69.3495 286.374 69.1009 287.303 68.6038 288.114C68.1116 288.924 67.4205 289.56 66.5306 290.023C65.6457 290.48 64.6091 290.709 63.4209 290.709ZM79.9297 287.636V286.831C79.9297 286.205 80.0639 285.625 80.3324 285.093C80.6058 284.561 81.0011 284.134 81.5181 283.811C82.0352 283.488 82.6665 283.326 83.4123 283.326C84.1729 283.326 84.8118 283.488 85.3288 283.811C85.8509 284.129 86.2436 284.554 86.5071 285.086C86.7756 285.613 86.9098 286.195 86.9098 286.831V287.636C86.9098 288.263 86.7756 288.842 86.5071 289.374C86.2386 289.906 85.8434 290.333 85.3214 290.657C84.7994 290.98 84.163 291.141 83.4123 291.141C82.6566 291.141 82.0202 290.98 81.5032 290.657C80.9862 290.333 80.5934 289.906 80.3249 289.374C80.0614 288.842 79.9297 288.263 79.9297 287.636ZM82.3086 286.831V287.636C82.3086 287.955 82.3857 288.26 82.5398 288.554C82.6989 288.847 82.9897 288.994 83.4123 288.994C83.8448 288.994 84.1357 288.852 84.2848 288.569C84.4339 288.28 84.5085 287.969 84.5085 287.636V286.831C84.5085 286.498 84.4364 286.185 84.2923 285.891C84.1531 285.593 83.8597 285.444 83.4123 285.444C82.9947 285.444 82.7063 285.593 82.5472 285.891C82.3881 286.185 82.3086 286.498 82.3086 286.831ZM72.0099 278.896V278.091C72.0099 277.455 72.1467 276.873 72.4201 276.346C72.6985 275.814 73.0962 275.389 73.6133 275.071C74.1303 274.748 74.7567 274.586 75.4925 274.586C76.2532 274.586 76.892 274.748 77.4091 275.071C77.9311 275.389 78.3263 275.814 78.5948 276.346C78.8633 276.873 78.9975 277.455 78.9975 278.091V278.896C78.9975 279.533 78.8608 280.114 78.5874 280.641C78.3189 281.168 77.9237 281.588 77.4016 281.902C76.8796 282.215 76.2433 282.371 75.4925 282.371C74.7418 282.371 74.1055 282.212 73.5835 281.894C73.0664 281.576 72.6737 281.153 72.4052 280.626C72.1417 280.099 72.0099 279.523 72.0099 278.896ZM74.4112 278.091V278.896C74.4112 279.229 74.4883 279.54 74.6424 279.828C74.8015 280.112 75.0849 280.254 75.4925 280.254C75.93 280.254 76.2209 280.112 76.3651 279.828C76.5142 279.54 76.5888 279.229 76.5888 278.896V278.091C76.5888 277.758 76.5192 277.445 76.38 277.151C76.2408 276.853 75.945 276.704 75.4925 276.704C75.0749 276.704 74.7891 276.855 74.6349 277.159C74.4858 277.462 74.4112 277.773 74.4112 278.091ZM73.136 290.5L83.636 275.227H85.6719L75.1719 290.5H73.136Z" fill="white"/>
<path d="M46.7585 301.583C46.375 301.583 46.0403 301.495 45.7544 301.319C45.4686 301.143 45.2466 300.897 45.0886 300.581C44.9306 300.265 44.8516 299.896 44.8516 299.473C44.8516 299.049 44.9306 298.678 45.0886 298.36C45.2466 298.042 45.4686 297.795 45.7544 297.619C46.0403 297.444 46.375 297.356 46.7585 297.356C47.142 297.356 47.4767 297.444 47.7626 297.619C48.0485 297.795 48.2704 298.042 48.4284 298.36C48.5865 298.678 48.6655 299.049 48.6655 299.473C48.6655 299.896 48.5865 300.265 48.4284 300.581C48.2704 300.897 48.0485 301.143 47.7626 301.319C47.4767 301.495 47.142 301.583 46.7585 301.583ZM46.7612 300.914C47.0098 300.914 47.2157 300.848 47.3791 300.717C47.5424 300.586 47.6632 300.411 47.7413 300.192C47.8212 299.974 47.8612 299.733 47.8612 299.471C47.8612 299.21 47.8212 298.97 47.7413 298.751C47.6632 298.531 47.5424 298.355 47.3791 298.221C47.2157 298.088 47.0098 298.022 46.7612 298.022C46.5108 298.022 46.3031 298.088 46.138 298.221C45.9746 298.355 45.853 298.531 45.7731 298.751C45.695 298.97 45.6559 299.21 45.6559 299.471C45.6559 299.733 45.695 299.974 45.7731 300.192C45.853 300.411 45.9746 300.586 46.138 300.717C46.3031 300.848 46.5108 300.914 46.7612 300.914ZM51.5013 297.409V298.048H49.1895V297.409H51.5013ZM49.8234 301.5V296.935C49.8234 296.679 49.8793 296.467 49.9912 296.298C50.103 296.128 50.2513 296.001 50.4359 295.918C50.6206 295.832 50.8212 295.79 51.0379 295.79C51.1977 295.79 51.3344 295.803 51.448 295.83C51.5617 295.855 51.646 295.878 51.701 295.899L51.5146 296.544C51.4773 296.533 51.4294 296.52 51.3708 296.506C51.3122 296.49 51.2412 296.482 51.1577 296.482C50.9642 296.482 50.8257 296.53 50.7422 296.626C50.6606 296.722 50.6197 296.86 50.6197 297.042V301.5H49.8234ZM55.8392 301.58C55.509 301.58 55.2142 301.496 54.955 301.327C54.6975 301.156 54.4951 300.914 54.3477 300.6C54.2021 300.284 54.1294 299.905 54.1294 299.463C54.1294 299.02 54.203 298.642 54.3504 298.328C54.4996 298.014 54.7037 297.773 54.963 297.606C55.2222 297.439 55.5161 297.356 55.8445 297.356C56.0985 297.356 56.3026 297.398 56.4571 297.484C56.6134 297.567 56.7341 297.665 56.8193 297.777C56.9063 297.888 56.9738 297.987 57.0218 298.072H57.0697V296.045H57.866V301.5H57.0883V300.863H57.0218C56.9738 300.95 56.9046 301.05 56.814 301.162C56.7252 301.274 56.6027 301.371 56.4465 301.455C56.2902 301.538 56.0878 301.58 55.8392 301.58ZM56.015 300.901C56.2441 300.901 56.4376 300.84 56.5956 300.72C56.7554 300.597 56.8762 300.428 56.9578 300.211C57.0413 299.994 57.083 299.742 57.083 299.455C57.083 299.17 57.0422 298.922 56.9605 298.709C56.8788 298.496 56.759 298.33 56.6009 298.211C56.4429 298.092 56.2476 298.032 56.015 298.032C55.7753 298.032 55.5756 298.094 55.4157 298.219C55.2559 298.343 55.1352 298.513 55.0535 298.727C54.9736 298.942 54.9337 299.185 54.9337 299.455C54.9337 299.728 54.9745 299.974 55.0562 300.192C55.1379 300.411 55.2586 300.584 55.4184 300.712C55.58 300.838 55.7789 300.901 56.015 300.901ZM60.1931 301.591C59.9339 301.591 59.6995 301.543 59.49 301.447C59.2805 301.349 59.1145 301.208 58.992 301.023C58.8712 300.839 58.8109 300.612 58.8109 300.344C58.8109 300.113 58.8552 299.923 58.944 299.774C59.0328 299.625 59.1527 299.507 59.3036 299.42C59.4545 299.333 59.6232 299.267 59.8096 299.223C59.996 299.178 60.186 299.145 60.3796 299.122C60.6246 299.093 60.8235 299.07 60.9762 299.052C61.1289 299.033 61.2398 299.002 61.3091 298.959C61.3783 298.917 61.413 298.847 61.413 298.751V298.733C61.413 298.5 61.3473 298.32 61.2159 298.192C61.0862 298.064 60.8927 298 60.6353 298C60.3671 298 60.1559 298.06 60.0014 298.179C59.8487 298.296 59.743 298.426 59.6844 298.57L58.936 298.4C59.0248 298.151 59.1544 297.951 59.3249 297.798C59.4971 297.643 59.6951 297.532 59.9188 297.462C60.1425 297.391 60.3778 297.356 60.6246 297.356C60.788 297.356 60.9611 297.375 61.144 297.414C61.3286 297.452 61.5008 297.521 61.6606 297.622C61.8222 297.723 61.9545 297.868 62.0575 298.056C62.1605 298.243 62.212 298.485 62.212 298.783V301.5H61.4343V300.941H61.4023C61.3508 301.044 61.2736 301.145 61.1706 301.244C61.0676 301.344 60.9353 301.426 60.7737 301.492C60.6122 301.558 60.4186 301.591 60.1931 301.591ZM60.3663 300.951C60.5864 300.951 60.7746 300.908 60.9309 300.821C61.0889 300.734 61.2088 300.62 61.2904 300.48C61.3739 300.338 61.4156 300.186 61.4156 300.025V299.497C61.3872 299.526 61.3322 299.552 61.2505 299.577C61.1706 299.6 61.0791 299.621 60.9762 299.638C60.8732 299.654 60.7729 299.669 60.6752 299.684C60.5775 299.696 60.4959 299.707 60.4302 299.716C60.2757 299.735 60.1345 299.768 60.0067 299.814C59.8806 299.86 59.7794 299.927 59.7031 300.014C59.6285 300.099 59.5912 300.213 59.5912 300.355C59.5912 300.552 59.664 300.701 59.8096 300.802C59.9552 300.902 60.1408 300.951 60.3663 300.951ZM65.1823 297.409V298.048H62.9477V297.409H65.1823ZM63.547 296.429H64.3433V300.299C64.3433 300.453 64.3664 300.57 64.4126 300.648C64.4587 300.724 64.5182 300.776 64.591 300.805C64.6656 300.831 64.7464 300.845 64.8334 300.845C64.8973 300.845 64.9532 300.84 65.0012 300.831C65.0491 300.823 65.0864 300.816 65.113 300.81L65.2568 301.468C65.2107 301.486 65.145 301.504 65.0597 301.521C64.9745 301.541 64.868 301.551 64.7401 301.553C64.5306 301.557 64.3353 301.52 64.1542 301.441C63.9731 301.363 63.8266 301.243 63.7148 301.079C63.6029 300.916 63.547 300.711 63.547 300.464V296.429ZM67.2537 301.591C66.9945 301.591 66.7601 301.543 66.5506 301.447C66.341 301.349 66.175 301.208 66.0525 301.023C65.9318 300.839 65.8714 300.612 65.8714 300.344C65.8714 300.113 65.9158 299.923 66.0046 299.774C66.0934 299.625 66.2132 299.507 66.3641 299.42C66.515 299.333 66.6837 299.267 66.8702 299.223C67.0566 299.178 67.2466 299.145 67.4401 299.122C67.6851 299.093 67.884 299.07 68.0367 299.052C68.1894 299.033 68.3004 299.002 68.3696 298.959C68.4389 298.917 68.4735 298.847 68.4735 298.751V298.733C68.4735 298.5 68.4078 298.32 68.2764 298.192C68.1468 298.064 67.9533 298 67.6958 298C67.4277 298 67.2164 298.06 67.0619 298.179C66.9092 298.296 66.8036 298.426 66.745 298.57L65.9966 298.4C66.0854 298.151 66.215 297.951 66.3854 297.798C66.5577 297.643 66.7556 297.532 66.9794 297.462C67.2031 297.391 67.4383 297.356 67.6851 297.356C67.8485 297.356 68.0216 297.375 68.2045 297.414C68.3892 297.452 68.5614 297.521 68.7212 297.622C68.8828 297.723 69.015 297.868 69.118 298.056C69.221 298.243 69.2725 298.485 69.2725 298.783V301.5H68.4948V300.941H68.4628C68.4114 301.044 68.3341 301.145 68.2311 301.244C68.1282 301.344 67.9959 301.426 67.8343 301.492C67.6727 301.558 67.4792 301.591 67.2537 301.591ZM67.4268 300.951C67.647 300.951 67.8352 300.908 67.9914 300.821C68.1495 300.734 68.2693 300.62 68.351 300.48C68.4344 300.338 68.4762 300.186 68.4762 300.025V299.497C68.4478 299.526 68.3927 299.552 68.311 299.577C68.2311 299.6 68.1397 299.621 68.0367 299.638C67.9337 299.654 67.8334 299.669 67.7358 299.684C67.6381 299.696 67.5564 299.707 67.4907 299.716C67.3362 299.735 67.1951 299.768 67.0672 299.814C66.9412 299.86 66.84 299.927 66.7636 300.014C66.6891 300.099 66.6518 300.213 66.6518 300.355C66.6518 300.552 66.7246 300.701 66.8702 300.802C67.0158 300.902 67.2013 300.951 67.4268 300.951ZM70.3971 301.5V296.045H71.1934V298.072H71.2414C71.2876 297.987 71.3541 297.888 71.4411 297.777C71.5281 297.665 71.6489 297.567 71.8034 297.484C71.9578 297.398 72.162 297.356 72.4159 297.356C72.7462 297.356 73.0409 297.439 73.3002 297.606C73.5594 297.773 73.7627 298.014 73.9101 298.328C74.0592 298.642 74.1338 299.02 74.1338 299.463C74.1338 299.905 74.0601 300.284 73.9127 300.6C73.7654 300.914 73.5629 301.156 73.3055 301.327C73.048 301.496 72.7542 301.58 72.4239 301.58C72.1753 301.58 71.972 301.538 71.814 301.455C71.6578 301.371 71.5352 301.274 71.4465 301.162C71.3577 301.05 71.2893 300.95 71.2414 300.863H71.1748V301.5H70.3971ZM71.1775 299.455C71.1775 299.742 71.2192 299.994 71.3026 300.211C71.3861 300.428 71.5068 300.597 71.6649 300.72C71.8229 300.84 72.0164 300.901 72.2455 300.901C72.4834 300.901 72.6823 300.838 72.8421 300.712C73.0019 300.584 73.1226 300.411 73.2043 300.192C73.2877 299.974 73.3295 299.728 73.3295 299.455C73.3295 299.185 73.2886 298.942 73.2069 298.727C73.127 298.513 73.0063 298.343 72.8447 298.219C72.6849 298.094 72.4852 298.032 72.2455 298.032C72.0146 298.032 71.8193 298.092 71.6595 298.211C71.5015 298.33 71.3817 298.496 71.3 298.709C71.2183 298.922 71.1775 299.17 71.1775 299.455ZM76.2185 301.591C75.9593 301.591 75.7249 301.543 75.5154 301.447C75.3059 301.349 75.1399 301.208 75.0174 301.023C74.8966 300.839 74.8362 300.612 74.8362 300.344C74.8362 300.113 74.8806 299.923 74.9694 299.774C75.0582 299.625 75.178 299.507 75.329 299.42C75.4799 299.333 75.6486 299.267 75.835 299.223C76.0214 299.178 76.2114 299.145 76.405 299.122C76.65 299.093 76.8489 299.07 77.0016 299.052C77.1543 299.033 77.2652 299.002 77.3345 298.959C77.4037 298.917 77.4383 298.847 77.4383 298.751V298.733C77.4383 298.5 77.3726 298.32 77.2413 298.192C77.1116 298.064 76.9181 298 76.6606 298C76.3925 298 76.1812 298.06 76.0268 298.179C75.8741 298.296 75.7684 298.426 75.7098 298.57L74.9614 298.4C75.0502 298.151 75.1798 297.951 75.3503 297.798C75.5225 297.643 75.7205 297.532 75.9442 297.462C76.1679 297.391 76.4032 297.356 76.65 297.356C76.8133 297.356 76.9865 297.375 77.1693 297.414C77.354 297.452 77.5262 297.521 77.686 297.622C77.8476 297.723 77.9799 297.868 78.0829 298.056C78.1859 298.243 78.2373 298.485 78.2373 298.783V301.5H77.4597V300.941H77.4277C77.3762 301.044 77.299 301.145 77.196 301.244C77.093 301.344 76.9607 301.426 76.7991 301.492C76.6376 301.558 76.444 301.591 76.2185 301.591ZM76.3916 300.951C76.6118 300.951 76.8 300.908 76.9563 300.821C77.1143 300.734 77.2342 300.62 77.3158 300.48C77.3993 300.338 77.441 300.186 77.441 300.025V299.497C77.4126 299.526 77.3576 299.552 77.2759 299.577C77.196 299.6 77.1045 299.621 77.0016 299.638C76.8986 299.654 76.7983 299.669 76.7006 299.684C76.6029 299.696 76.5213 299.707 76.4556 299.716C76.3011 299.735 76.1599 299.768 76.0321 299.814C75.906 299.86 75.8048 299.927 75.7285 300.014C75.6539 300.099 75.6166 300.213 75.6166 300.355C75.6166 300.552 75.6894 300.701 75.835 300.802C75.9806 300.902 76.1661 300.951 76.3916 300.951ZM82.3635 298.408L81.6418 298.536C81.6116 298.443 81.5637 298.355 81.498 298.272C81.434 298.189 81.347 298.12 81.2369 298.067C81.1269 298.014 80.9893 297.987 80.8241 297.987C80.5986 297.987 80.4104 298.038 80.2595 298.139C80.1086 298.238 80.0331 298.367 80.0331 298.525C80.0331 298.662 80.0837 298.772 80.1849 298.855C80.2861 298.939 80.4495 299.007 80.675 299.06L81.3248 299.21C81.7013 299.297 81.9818 299.431 82.1665 299.612C82.3511 299.793 82.4434 300.028 82.4434 300.317C82.4434 300.562 82.3724 300.781 82.2304 300.973C82.0901 301.163 81.8939 301.312 81.6418 301.42C81.3914 301.528 81.1011 301.583 80.7709 301.583C80.3128 301.583 79.939 301.485 79.6496 301.29C79.3602 301.093 79.1826 300.813 79.1169 300.451L79.8866 300.333C79.9346 300.534 80.0331 300.686 80.1823 300.789C80.3314 300.89 80.5258 300.941 80.7655 300.941C81.0265 300.941 81.2352 300.887 81.3914 300.778C81.5477 300.668 81.6258 300.534 81.6258 300.376C81.6258 300.248 81.5779 300.141 81.482 300.054C81.3879 299.967 81.2432 299.901 81.0479 299.857L80.3554 299.705C79.9736 299.618 79.6913 299.479 79.5084 299.289C79.3273 299.099 79.2368 298.859 79.2368 298.568C79.2368 298.326 79.3042 298.115 79.4392 297.934C79.5741 297.753 79.7606 297.612 79.9985 297.51C80.2364 297.407 80.509 297.356 80.8161 297.356C81.2583 297.356 81.6063 297.452 81.8602 297.643C82.1141 297.833 82.2819 298.088 82.3635 298.408ZM85.0822 301.583C84.6791 301.583 84.332 301.496 84.0408 301.324C83.7514 301.15 83.5277 300.906 83.3696 300.592C83.2134 300.276 83.1353 299.906 83.1353 299.481C83.1353 299.062 83.2134 298.693 83.3696 298.373C83.5277 298.054 83.7478 297.804 84.0301 297.625C84.3142 297.445 84.6463 297.356 85.0262 297.356C85.2571 297.356 85.4808 297.394 85.6974 297.47C85.914 297.547 86.1084 297.667 86.2807 297.83C86.4529 297.993 86.5887 298.205 86.6882 298.466C86.7876 298.726 86.8373 299.041 86.8373 299.412V299.694H83.5854V299.098H86.057C86.057 298.888 86.0143 298.703 85.9291 298.541C85.8439 298.378 85.724 298.249 85.5696 298.155C85.4169 298.061 85.2375 298.014 85.0316 298.014C84.8078 298.014 84.6125 298.069 84.4456 298.179C84.2805 298.287 84.1527 298.429 84.0621 298.605C83.9733 298.779 83.9289 298.968 83.9289 299.172V299.638C83.9289 299.912 83.9769 300.144 84.0728 300.336C84.1704 300.528 84.3062 300.674 84.4802 300.776C84.6543 300.875 84.8576 300.925 85.0902 300.925C85.2411 300.925 85.3787 300.903 85.503 300.861C85.6273 300.816 85.7347 300.751 85.8252 300.664C85.9158 300.577 85.985 300.469 86.033 300.341L86.7867 300.477C86.7263 300.699 86.618 300.894 86.4618 301.061C86.3073 301.226 86.1129 301.354 85.8785 301.447C85.6459 301.537 85.3805 301.583 85.0822 301.583Z" fill="white"/>
<rect x="147.75" y="221" width="132.5" height="132.5" rx="15" fill="#40444B" fill-opacity="0.2"/>
<path d="M180.399 292V283.818H183.004V292H180.399ZM181.704 282.865C181.338 282.865 181.024 282.744 180.761 282.502C180.498 282.257 180.367 281.963 180.367 281.618C180.367 281.277 180.498 280.986 180.761 280.745C181.024 280.5 181.338 280.377 181.704 280.377C182.073 280.377 182.388 280.5 182.647 280.745C182.91 280.986 183.041 281.277 183.041 281.618C183.041 281.963 182.91 282.257 182.647 282.502C182.388 282.744 182.073 282.865 181.704 282.865ZM187.266 287.334V292H184.662V283.818H187.138V285.32H187.229C187.41 284.82 187.719 284.427 188.156 284.143C188.593 283.855 189.113 283.712 189.717 283.712C190.292 283.712 190.791 283.841 191.213 284.1C191.64 284.356 191.97 284.715 192.204 285.176C192.442 285.635 192.559 286.171 192.556 286.785V292H189.951V287.297C189.955 286.842 189.839 286.487 189.605 286.231C189.374 285.975 189.053 285.848 188.641 285.848C188.367 285.848 188.126 285.908 187.916 286.029C187.71 286.146 187.55 286.315 187.437 286.535C187.327 286.755 187.27 287.021 187.266 287.334ZM195.595 292V286.69L206.736 276.936C207.571 276.18 208.282 275.489 208.869 274.863C209.456 274.227 209.903 273.59 210.211 272.954C210.52 272.308 210.674 271.607 210.674 270.851C210.674 270.006 210.49 269.285 210.122 268.688C209.754 268.082 209.247 267.614 208.601 267.286C207.954 266.958 207.214 266.794 206.378 266.794C205.533 266.794 204.792 266.968 204.156 267.316C203.52 267.654 203.022 268.146 202.665 268.793C202.316 269.439 202.142 270.224 202.142 271.149H195.147C195.147 269.071 195.615 267.276 196.549 265.765C197.484 264.254 198.797 263.09 200.487 262.275C202.187 261.45 204.161 261.037 206.408 261.037C208.725 261.037 210.738 261.425 212.449 262.2C214.159 262.976 215.481 264.06 216.416 265.452C217.361 266.834 217.833 268.44 217.833 270.269C217.833 271.433 217.599 272.586 217.132 273.729C216.665 274.873 215.824 276.136 214.611 277.518C213.408 278.9 211.698 280.555 209.481 282.484L205.826 285.855V286.049H218.206V292H195.595ZM221.349 286.929V281.172L233.862 261.455H238.978V269.27H236.01L228.687 280.874V281.112H246.809V286.929H221.349ZM236.1 292V285.169L236.249 282.648V261.455H243.154V292H236.1Z" fill="white"/>
<path d="M202.092 300.53C202.009 300.271 201.898 300.04 201.759 299.835C201.623 299.628 201.46 299.452 201.269 299.307C201.079 299.159 200.862 299.047 200.617 298.97C200.376 298.893 200.11 298.855 199.82 298.855C199.329 298.855 198.886 298.982 198.491 299.234C198.096 299.487 197.783 299.858 197.553 300.347C197.326 300.832 197.212 301.428 197.212 302.132C197.212 302.839 197.327 303.437 197.558 303.926C197.788 304.415 198.103 304.786 198.504 305.038C198.904 305.291 199.36 305.418 199.871 305.418C200.346 305.418 200.759 305.321 201.112 305.128C201.467 304.935 201.741 304.662 201.934 304.31C202.13 303.955 202.228 303.537 202.228 303.057L202.569 303.121H200.072V302.034H203.502V303.027C203.502 303.76 203.346 304.396 203.033 304.936C202.724 305.473 202.295 305.888 201.746 306.18C201.201 306.473 200.576 306.619 199.871 306.619C199.082 306.619 198.388 306.438 197.792 306.074C197.198 305.71 196.735 305.195 196.403 304.527C196.07 303.857 195.904 303.061 195.904 302.141C195.904 301.445 196.001 300.82 196.194 300.266C196.387 299.712 196.658 299.241 197.008 298.855C197.36 298.466 197.773 298.169 198.248 297.964C198.725 297.757 199.246 297.653 199.812 297.653C200.283 297.653 200.722 297.723 201.129 297.862C201.538 298.001 201.901 298.199 202.219 298.455C202.54 298.71 202.806 299.014 203.016 299.366C203.227 299.716 203.369 300.104 203.442 300.53H202.092ZM209.218 303.786V299.955H210.496V306.5H209.243V305.366H209.175C209.025 305.716 208.783 306.007 208.451 306.24C208.121 306.47 207.711 306.585 207.219 306.585C206.799 306.585 206.426 306.493 206.103 306.308C205.782 306.121 205.529 305.844 205.344 305.477C205.162 305.111 205.071 304.658 205.071 304.118V299.955H206.346V303.964C206.346 304.411 206.469 304.766 206.716 305.03C206.963 305.294 207.284 305.426 207.679 305.426C207.918 305.426 208.155 305.366 208.391 305.247C208.63 305.128 208.827 304.947 208.983 304.706C209.142 304.464 209.221 304.158 209.218 303.786ZM212.208 306.5V299.955H213.482V306.5H212.208ZM212.852 298.945C212.63 298.945 212.44 298.871 212.281 298.723C212.124 298.572 212.046 298.393 212.046 298.186C212.046 297.976 212.124 297.797 212.281 297.649C212.44 297.499 212.63 297.423 212.852 297.423C213.073 297.423 213.262 297.499 213.418 297.649C213.577 297.797 213.657 297.976 213.657 298.186C213.657 298.393 213.577 298.572 213.418 298.723C213.262 298.871 213.073 298.945 212.852 298.945ZM216.471 297.773V306.5H215.196V297.773H216.471ZM220.635 306.628C220.107 306.628 219.635 306.493 219.22 306.223C218.808 305.95 218.484 305.562 218.249 305.06C218.016 304.554 217.899 303.947 217.899 303.24C217.899 302.533 218.017 301.928 218.253 301.425C218.491 300.922 218.818 300.537 219.233 300.27C219.648 300.003 220.118 299.869 220.643 299.869C221.05 299.869 221.376 299.938 221.624 300.074C221.874 300.207 222.067 300.364 222.203 300.543C222.342 300.722 222.45 300.879 222.527 301.016H222.604V297.773H223.878V306.5H222.634V305.482H222.527C222.45 305.621 222.339 305.78 222.195 305.959C222.053 306.138 221.857 306.294 221.607 306.428C221.357 306.561 221.033 306.628 220.635 306.628ZM220.916 305.541C221.283 305.541 221.592 305.445 221.845 305.251C222.101 305.055 222.294 304.784 222.425 304.438C222.558 304.091 222.625 303.687 222.625 303.227C222.625 302.773 222.56 302.375 222.429 302.034C222.298 301.693 222.107 301.428 221.854 301.237C221.601 301.047 221.288 300.952 220.916 300.952C220.533 300.952 220.213 301.051 219.957 301.25C219.702 301.449 219.509 301.72 219.378 302.064C219.25 302.408 219.186 302.795 219.186 303.227C219.186 303.665 219.251 304.058 219.382 304.408C219.513 304.757 219.706 305.034 219.962 305.239C220.22 305.44 220.538 305.541 220.916 305.541ZM230.601 301.553L229.446 301.757C229.398 301.609 229.321 301.469 229.216 301.335C229.114 301.202 228.975 301.092 228.799 301.007C228.623 300.922 228.402 300.879 228.138 300.879C227.777 300.879 227.476 300.96 227.235 301.122C226.993 301.281 226.873 301.487 226.873 301.74C226.873 301.959 226.953 302.135 227.115 302.268C227.277 302.402 227.539 302.511 227.9 302.597L228.939 302.835C229.542 302.974 229.99 303.189 230.286 303.479C230.581 303.768 230.729 304.145 230.729 304.608C230.729 305 230.615 305.349 230.388 305.656C230.164 305.96 229.85 306.199 229.446 306.372C229.046 306.545 228.581 306.632 228.053 306.632C227.32 306.632 226.722 306.476 226.259 306.163C225.796 305.848 225.512 305.401 225.407 304.821L226.638 304.634C226.715 304.955 226.873 305.197 227.111 305.362C227.35 305.524 227.661 305.605 228.044 305.605C228.462 305.605 228.796 305.518 229.046 305.345C229.296 305.169 229.421 304.955 229.421 304.702C229.421 304.497 229.344 304.325 229.191 304.186C229.04 304.047 228.809 303.942 228.496 303.871L227.388 303.628C226.777 303.489 226.326 303.267 226.033 302.963C225.743 302.659 225.598 302.274 225.598 301.808C225.598 301.422 225.706 301.084 225.922 300.794C226.138 300.504 226.436 300.278 226.817 300.116C227.198 299.952 227.634 299.869 228.125 299.869C228.833 299.869 229.39 300.023 229.796 300.33C230.202 300.634 230.471 301.041 230.601 301.553Z" fill="white"/>
<rect x="295.5" y="221" width="132.5" height="132.5" rx="15" fill="#40444B" fill-opacity="0.2"/>
<path d="M340.33 292.418C338.102 292.418 336.124 292.015 334.394 291.21C332.663 290.404 331.296 289.295 330.292 287.884C329.298 286.472 328.781 284.851 328.741 283.021H335.9C335.96 284.145 336.417 285.05 337.272 285.736C338.127 286.412 339.146 286.75 340.33 286.75C341.254 286.75 342.075 286.546 342.791 286.138C343.506 285.731 344.068 285.159 344.476 284.423C344.884 283.678 345.082 282.822 345.072 281.858C345.082 280.874 344.879 280.013 344.461 279.278C344.053 278.542 343.487 277.97 342.761 277.562C342.045 277.145 341.22 276.936 340.285 276.936C339.4 276.926 338.56 277.12 337.764 277.518C336.979 277.915 336.382 278.457 335.974 279.143L329.457 277.92L330.784 261.455H350.382V267.406H336.854L336.153 274.609H336.332C336.84 273.764 337.655 273.068 338.778 272.521C339.912 271.964 341.2 271.686 342.641 271.686C344.471 271.686 346.102 272.114 347.533 272.969C348.975 273.814 350.109 274.987 350.934 276.489C351.769 277.99 352.187 279.71 352.187 281.649C352.187 283.747 351.69 285.607 350.695 287.227C349.711 288.848 348.329 290.121 346.549 291.045C344.779 291.96 342.706 292.418 340.33 292.418ZM368.873 292.746C366.208 292.746 363.911 292.114 361.982 290.852C360.053 289.579 358.567 287.754 357.523 285.378C356.479 282.991 355.962 280.123 355.971 276.772C355.981 273.421 356.503 270.577 357.538 268.241C358.582 265.894 360.063 264.109 361.982 262.886C363.911 261.653 366.208 261.037 368.873 261.037C371.538 261.037 373.834 261.653 375.763 262.886C377.702 264.109 379.194 265.894 380.238 268.241C381.282 270.587 381.799 273.431 381.789 276.772C381.789 280.133 381.267 283.006 380.223 285.393C379.179 287.779 377.692 289.604 375.763 290.866C373.844 292.119 371.547 292.746 368.873 292.746ZM368.873 286.705C370.464 286.705 371.751 285.895 372.736 284.274C373.72 282.643 374.207 280.143 374.197 276.772C374.197 274.565 373.974 272.745 373.526 271.313C373.079 269.871 372.457 268.798 371.662 268.092C370.866 267.386 369.937 267.033 368.873 267.033C367.292 267.033 366.014 267.833 365.04 269.434C364.065 271.025 363.573 273.471 363.563 276.772C363.553 279.009 363.767 280.864 364.204 282.335C364.652 283.807 365.278 284.906 366.084 285.631C366.889 286.347 367.819 286.705 368.873 286.705ZM388.568 285.467V292H384.921V276.727H388.448V282.648H388.575C388.834 281.942 389.256 281.391 389.843 280.993C390.435 280.595 391.158 280.396 392.013 280.396C392.818 280.396 393.519 280.575 394.116 280.933C394.713 281.286 395.175 281.786 395.503 282.432C395.836 283.078 396 283.834 395.995 284.699V292H392.349V285.415C392.354 284.779 392.194 284.282 391.871 283.924C391.548 283.566 391.093 283.387 390.507 283.387C390.124 283.387 389.786 283.471 389.492 283.64C389.204 283.804 388.978 284.04 388.814 284.349C388.655 284.657 388.573 285.03 388.568 285.467Z" fill="white"/>
<path d="M318.43 306.632C317.797 306.632 317.251 306.489 316.794 306.202C316.339 305.912 315.99 305.513 315.745 305.004C315.501 304.496 315.379 303.913 315.379 303.257C315.379 302.592 315.504 302.006 315.754 301.497C316.004 300.986 316.356 300.587 316.811 300.3C317.265 300.013 317.801 299.869 318.417 299.869C318.914 299.869 319.358 299.962 319.747 300.146C320.136 300.328 320.45 300.584 320.689 300.913C320.93 301.243 321.074 301.628 321.119 302.068H319.879C319.811 301.761 319.654 301.497 319.41 301.276C319.169 301.054 318.845 300.943 318.439 300.943C318.083 300.943 317.772 301.037 317.505 301.224C317.241 301.409 317.035 301.673 316.887 302.017C316.74 302.358 316.666 302.761 316.666 303.227C316.666 303.705 316.738 304.116 316.883 304.463C317.028 304.81 317.233 305.078 317.497 305.268C317.764 305.459 318.078 305.554 318.439 305.554C318.68 305.554 318.899 305.51 319.095 305.422C319.294 305.331 319.46 305.202 319.593 305.034C319.73 304.866 319.825 304.665 319.879 304.429H321.119C321.074 304.852 320.936 305.23 320.706 305.562C320.475 305.895 320.167 306.156 319.781 306.347C319.397 306.537 318.947 306.632 318.43 306.632ZM325.239 306.632C324.625 306.632 324.089 306.491 323.632 306.21C323.175 305.929 322.82 305.536 322.567 305.03C322.314 304.524 322.188 303.933 322.188 303.257C322.188 302.578 322.314 301.984 322.567 301.476C322.82 300.967 323.175 300.572 323.632 300.291C324.089 300.01 324.625 299.869 325.239 299.869C325.852 299.869 326.388 300.01 326.845 300.291C327.303 300.572 327.658 300.967 327.911 301.476C328.163 301.984 328.29 302.578 328.29 303.257C328.29 303.933 328.163 304.524 327.911 305.03C327.658 305.536 327.303 305.929 326.845 306.21C326.388 306.491 325.852 306.632 325.239 306.632ZM325.243 305.562C325.641 305.562 325.97 305.457 326.232 305.247C326.493 305.037 326.686 304.757 326.811 304.408C326.939 304.058 327.003 303.673 327.003 303.253C327.003 302.835 326.939 302.452 326.811 302.102C326.686 301.75 326.493 301.467 326.232 301.254C325.97 301.041 325.641 300.935 325.243 300.935C324.842 300.935 324.51 301.041 324.246 301.254C323.984 301.467 323.79 301.75 323.662 302.102C323.537 302.452 323.474 302.835 323.474 303.253C323.474 303.673 323.537 304.058 323.662 304.408C323.79 304.757 323.984 305.037 324.246 305.247C324.51 305.457 324.842 305.562 325.243 305.562ZM330.986 302.614V306.5H329.712V299.955H330.935V301.02H331.016C331.167 300.673 331.402 300.395 331.723 300.185C332.047 299.974 332.455 299.869 332.946 299.869C333.392 299.869 333.783 299.963 334.118 300.151C334.453 300.335 334.713 300.611 334.898 300.977C335.083 301.344 335.175 301.797 335.175 302.337V306.5H333.901V302.49C333.901 302.016 333.777 301.645 333.53 301.378C333.283 301.108 332.944 300.973 332.512 300.973C332.216 300.973 331.953 301.037 331.723 301.165C331.496 301.293 331.316 301.48 331.182 301.727C331.051 301.972 330.986 302.267 330.986 302.614ZM338.158 302.614V306.5H336.884V299.955H338.107V301.02H338.188C338.338 300.673 338.574 300.395 338.895 300.185C339.219 299.974 339.627 299.869 340.118 299.869C340.564 299.869 340.955 299.963 341.29 300.151C341.625 300.335 341.885 300.611 342.07 300.977C342.255 301.344 342.347 301.797 342.347 302.337V306.5H341.073V302.49C341.073 302.016 340.949 301.645 340.702 301.378C340.455 301.108 340.115 300.973 339.684 300.973C339.388 300.973 339.125 301.037 338.895 301.165C338.668 301.293 338.488 301.48 338.354 301.727C338.223 301.972 338.158 302.267 338.158 302.614ZM346.877 306.632C346.232 306.632 345.676 306.494 345.211 306.219C344.748 305.94 344.39 305.55 344.137 305.047C343.887 304.541 343.762 303.949 343.762 303.27C343.762 302.599 343.887 302.009 344.137 301.497C344.39 300.986 344.742 300.587 345.194 300.3C345.648 300.013 346.179 299.869 346.787 299.869C347.157 299.869 347.515 299.93 347.861 300.053C348.208 300.175 348.519 300.366 348.794 300.628C349.07 300.889 349.287 301.229 349.446 301.646C349.605 302.061 349.685 302.565 349.685 303.159V303.611H344.482V302.656H348.436C348.436 302.321 348.368 302.024 348.232 301.766C348.096 301.504 347.904 301.298 347.657 301.148C347.412 300.997 347.125 300.922 346.796 300.922C346.438 300.922 346.125 301.01 345.858 301.186C345.594 301.359 345.39 301.587 345.245 301.868C345.103 302.146 345.032 302.449 345.032 302.776V303.521C345.032 303.959 345.108 304.331 345.262 304.638C345.418 304.945 345.635 305.179 345.914 305.341C346.192 305.5 346.517 305.58 346.89 305.58C347.131 305.58 347.351 305.545 347.55 305.477C347.749 305.406 347.921 305.301 348.066 305.162C348.211 305.023 348.321 304.851 348.398 304.646L349.604 304.864C349.507 305.219 349.334 305.53 349.084 305.797C348.837 306.061 348.526 306.267 348.151 306.415C347.779 306.56 347.354 306.632 346.877 306.632ZM353.856 306.632C353.222 306.632 352.677 306.489 352.219 306.202C351.765 305.912 351.415 305.513 351.171 305.004C350.927 304.496 350.805 303.913 350.805 303.257C350.805 302.592 350.93 302.006 351.18 301.497C351.43 300.986 351.782 300.587 352.237 300.3C352.691 300.013 353.227 299.869 353.843 299.869C354.34 299.869 354.783 299.962 355.173 300.146C355.562 300.328 355.876 300.584 356.114 300.913C356.356 301.243 356.499 301.628 356.545 302.068H355.305C355.237 301.761 355.08 301.497 354.836 301.276C354.594 301.054 354.271 300.943 353.864 300.943C353.509 300.943 353.198 301.037 352.931 301.224C352.667 301.409 352.461 301.673 352.313 302.017C352.165 302.358 352.092 302.761 352.092 303.227C352.092 303.705 352.164 304.116 352.309 304.463C352.454 304.81 352.658 305.078 352.923 305.268C353.19 305.459 353.504 305.554 353.864 305.554C354.106 305.554 354.325 305.51 354.521 305.422C354.719 305.331 354.886 305.202 355.019 305.034C355.156 304.866 355.251 304.665 355.305 304.429H356.545C356.499 304.852 356.362 305.23 356.131 305.562C355.901 305.895 355.593 306.156 355.207 306.347C354.823 306.537 354.373 306.632 353.856 306.632ZM360.963 299.955V300.977H357.387V299.955H360.963ZM358.346 298.386H359.62V304.578C359.62 304.825 359.657 305.011 359.731 305.136C359.805 305.259 359.9 305.342 360.017 305.388C360.136 305.43 360.265 305.452 360.404 305.452C360.507 305.452 360.596 305.445 360.673 305.43C360.75 305.416 360.809 305.405 360.852 305.396L361.082 306.449C361.008 306.477 360.903 306.506 360.767 306.534C360.63 306.565 360.46 306.582 360.255 306.585C359.92 306.591 359.608 306.531 359.318 306.406C359.028 306.281 358.794 306.088 358.615 305.827C358.436 305.565 358.346 305.237 358.346 304.842V298.386ZM362.372 306.5V299.955H363.646V306.5H362.372ZM363.016 298.945C362.794 298.945 362.604 298.871 362.445 298.723C362.288 298.572 362.21 298.393 362.21 298.186C362.21 297.976 362.288 297.797 362.445 297.649C362.604 297.499 362.794 297.423 363.016 297.423C363.237 297.423 363.426 297.499 363.582 297.649C363.741 297.797 363.821 297.976 363.821 298.186C363.821 298.393 363.741 298.572 363.582 298.723C363.426 298.871 363.237 298.945 363.016 298.945ZM368.118 306.632C367.504 306.632 366.968 306.491 366.511 306.21C366.054 305.929 365.699 305.536 365.446 305.03C365.193 304.524 365.066 303.933 365.066 303.257C365.066 302.578 365.193 301.984 365.446 301.476C365.699 300.967 366.054 300.572 366.511 300.291C366.968 300.01 367.504 299.869 368.118 299.869C368.731 299.869 369.267 300.01 369.724 300.291C370.181 300.572 370.537 300.967 370.789 301.476C371.042 301.984 371.169 302.578 371.169 303.257C371.169 303.933 371.042 304.524 370.789 305.03C370.537 305.536 370.181 305.929 369.724 306.21C369.267 306.491 368.731 306.632 368.118 306.632ZM368.122 305.562C368.52 305.562 368.849 305.457 369.11 305.247C369.372 305.037 369.565 304.757 369.69 304.408C369.818 304.058 369.882 303.673 369.882 303.253C369.882 302.835 369.818 302.452 369.69 302.102C369.565 301.75 369.372 301.467 369.11 301.254C368.849 301.041 368.52 300.935 368.122 300.935C367.721 300.935 367.389 301.041 367.125 301.254C366.863 301.467 366.669 301.75 366.541 302.102C366.416 302.452 366.353 302.835 366.353 303.253C366.353 303.673 366.416 304.058 366.541 304.408C366.669 304.757 366.863 305.037 367.125 305.247C367.389 305.457 367.721 305.562 368.122 305.562ZM373.865 302.614V306.5H372.591V299.955H373.814V301.02H373.895C374.045 300.673 374.281 300.395 374.602 300.185C374.926 299.974 375.334 299.869 375.825 299.869C376.271 299.869 376.662 299.963 376.997 300.151C377.332 300.335 377.592 300.611 377.777 300.977C377.962 301.344 378.054 301.797 378.054 302.337V306.5H376.78V302.49C376.78 302.016 376.656 301.645 376.409 301.378C376.162 301.108 375.822 300.973 375.391 300.973C375.095 300.973 374.832 301.037 374.602 301.165C374.375 301.293 374.195 301.48 374.061 301.727C373.93 301.972 373.865 302.267 373.865 302.614ZM385.994 299.955V300.977H382.419V299.955H385.994ZM383.377 298.386H384.652V304.578C384.652 304.825 384.689 305.011 384.762 305.136C384.836 305.259 384.931 305.342 385.048 305.388C385.167 305.43 385.297 305.452 385.436 305.452C385.538 305.452 385.627 305.445 385.704 305.43C385.781 305.416 385.841 305.405 385.883 305.396L386.113 306.449C386.039 306.477 385.934 306.506 385.798 306.534C385.662 306.565 385.491 306.582 385.287 306.585C384.951 306.591 384.639 306.531 384.349 306.406C384.059 306.281 383.825 306.088 383.646 305.827C383.467 305.565 383.377 305.237 383.377 304.842V298.386ZM387.403 306.5V299.955H388.678V306.5H387.403ZM388.047 298.945C387.825 298.945 387.635 298.871 387.476 298.723C387.32 298.572 387.241 298.393 387.241 298.186C387.241 297.976 387.32 297.797 387.476 297.649C387.635 297.499 387.825 297.423 388.047 297.423C388.268 297.423 388.457 297.499 388.614 297.649C388.773 297.797 388.852 297.976 388.852 298.186C388.852 298.393 388.773 298.572 388.614 298.723C388.457 298.871 388.268 298.945 388.047 298.945ZM390.392 306.5V299.955H391.615V301.02H391.696C391.832 300.659 392.055 300.378 392.365 300.176C392.674 299.972 393.045 299.869 393.477 299.869C393.914 299.869 394.281 299.972 394.576 300.176C394.875 300.381 395.095 300.662 395.237 301.02H395.305C395.461 300.67 395.71 300.392 396.051 300.185C396.392 299.974 396.798 299.869 397.27 299.869C397.863 299.869 398.348 300.055 398.723 300.428C399.1 300.8 399.289 301.361 399.289 302.111V306.5H398.015V302.23C398.015 301.787 397.895 301.466 397.653 301.267C397.412 301.068 397.123 300.969 396.788 300.969C396.373 300.969 396.051 301.097 395.821 301.352C395.591 301.605 395.475 301.93 395.475 302.328V306.5H394.206V302.149C394.206 301.794 394.095 301.509 393.873 301.293C393.652 301.077 393.363 300.969 393.008 300.969C392.767 300.969 392.544 301.033 392.339 301.161C392.137 301.286 391.974 301.46 391.849 301.685C391.727 301.909 391.666 302.169 391.666 302.464V306.5H390.392ZM403.818 306.632C403.173 306.632 402.618 306.494 402.152 306.219C401.689 305.94 401.331 305.55 401.078 305.047C400.828 304.541 400.703 303.949 400.703 303.27C400.703 302.599 400.828 302.009 401.078 301.497C401.331 300.986 401.683 300.587 402.135 300.3C402.589 300.013 403.121 299.869 403.729 299.869C404.098 299.869 404.456 299.93 404.803 300.053C405.149 300.175 405.46 300.366 405.736 300.628C406.011 300.889 406.229 301.229 406.388 301.646C406.547 302.061 406.626 302.565 406.626 303.159V303.611H401.423V302.656H405.378C405.378 302.321 405.31 302.024 405.173 301.766C405.037 301.504 404.845 301.298 404.598 301.148C404.354 300.997 404.067 300.922 403.737 300.922C403.379 300.922 403.067 301.01 402.8 301.186C402.536 301.359 402.331 301.587 402.186 301.868C402.044 302.146 401.973 302.449 401.973 302.776V303.521C401.973 303.959 402.05 304.331 402.203 304.638C402.359 304.945 402.577 305.179 402.855 305.341C403.134 305.5 403.459 305.58 403.831 305.58C404.072 305.58 404.293 305.545 404.491 305.477C404.69 305.406 404.862 305.301 405.007 305.162C405.152 305.023 405.263 304.851 405.339 304.646L406.545 304.864C406.449 305.219 406.276 305.53 406.026 305.797C405.778 306.061 405.467 306.267 405.092 306.415C404.72 306.56 404.295 306.632 403.818 306.632Z" fill="white"/>
</svg>
