<svg width="616" height="780" viewBox="0 0 616 780" fill="none" xmlns="http://www.w3.org/2000/svg">
<g filter="url(#filter0_d_15_306)">
<path d="M100 115C100 106.716 106.716 100 115 100H616V680H115C106.716 680 100 673.284 100 665V115Z" fill="#23272B"/>
<path d="M100 115C100 106.716 106.716 100 115 100H290V680H115C106.716 680 100 673.284 100 665V115Z" fill="#40444B" fill-opacity="0.2"/>
<circle cx="152" cy="171" r="20" fill="#5865F2"/>
<rect x="179" y="156" width="78" height="15" rx="7.5" fill="#5865F2"/>
<circle cx="183" cy="180" r="4" fill="#40444B"/>
<rect x="191" y="178" width="33" height="4" rx="2" fill="#40444B"/>
<rect x="140" y="255" width="110" height="15" rx="5" fill="#5865F2"/>
<rect x="140" y="285" width="110" height="15" rx="5" fill="#40444B"/>
<rect x="140" y="315" width="110" height="15" rx="5" fill="#40444B"/>
<rect x="140" y="636" width="110" height="15" rx="5" fill="#40444B"/>
<path d="M100 270C101.989 270 103.897 269.21 105.303 267.803C106.71 266.397 107.5 264.489 107.5 262.5C107.5 260.511 106.71 258.603 105.303 257.197C103.897 255.79 101.989 255 100 255L100 262.5L100 270Z" fill="#5865F2"/>
<path d="M399 206C399 197.716 405.716 191 414 191H616V393H414C405.716 393 399 386.284 399 378V206Z" fill="#202225"/>
<path d="M582 218C582 215.239 584.239 213 587 213H616V228H587C584.239 228 582 225.761 582 223V218Z" fill="#40444B"/>
<rect x="506" y="299" width="10" height="55" rx="5" fill="#FF6BFA"/>
<rect x="526" y="276" width="10" height="78" rx="5" fill="#FF6BFA"/>
<rect x="546" y="251" width="10" height="103" rx="5" fill="#FF6BFA"/>
<rect x="566" y="326" width="10" height="28" rx="5" fill="#FF6BFA"/>
<rect x="586" y="269" width="10" height="85" rx="5" fill="#FF6BFA"/>
<rect x="606" y="281" width="10" height="73" rx="5" fill="#FF6BFA"/>
<rect x="437" y="272" width="34" height="4" rx="2" fill="#40444B"/>
<rect x="437" y="311" width="34" height="4" rx="2" fill="#40444B"/>
<rect x="437" y="350" width="34" height="4" rx="2" fill="#40444B"/>
<rect x="399" y="418" width="170" height="170" rx="15" fill="#202225"/>
<rect x="589" y="418" width="170" height="170" rx="15" fill="#202225"/>
<path d="M541 503.5C543.761 503.5 546.021 505.742 545.8 508.495C544.939 519.238 541.311 529.607 535.231 538.574C528.213 548.925 518.251 556.932 506.634 561.561C495.017 566.19 482.278 567.227 470.065 564.539C457.852 561.851 446.726 555.561 438.126 546.482C429.526 537.403 423.847 525.953 421.824 513.613C419.8 501.272 421.525 488.608 426.776 477.258C432.026 465.909 440.561 456.395 451.276 449.947C460.559 444.362 471.109 441.3 481.883 441.021C484.644 440.949 486.76 443.327 486.611 446.084L486.307 451.701C486.157 454.458 483.796 456.545 481.038 456.69C473.393 457.092 465.935 459.362 459.332 463.336C451.296 468.171 444.895 475.306 440.957 483.819C437.019 492.331 435.725 501.829 437.243 511.085C438.76 520.34 443.019 528.927 449.47 535.737C455.92 542.546 464.264 547.263 473.424 549.279C482.584 551.295 492.138 550.517 500.851 547.046C509.564 543.574 517.035 537.568 522.298 529.805C526.623 523.427 529.294 516.103 530.109 508.491C530.403 505.745 532.614 503.5 535.375 503.5H541Z" fill="#FF6BFA"/>
<rect x="459" y="478" width="50" height="50" rx="15" fill="#40444B"/>
<path d="M399 651C399 642.716 405.716 636 414 636H616V680H399V651Z" fill="#202225"/>
</g>
<defs>
<filter id="filter0_d_15_306" x="0" y="0" width="859" height="780" filterUnits="userSpaceOnUse" color-interpolation-filters="sRGB">
<feFlood flood-opacity="0" result="BackgroundImageFix"/>
<feColorMatrix in="SourceAlpha" type="matrix" values="0 0 0 0 0 0 0 0 0 0 0 0 0 0 0 0 0 0 127 0" result="hardAlpha"/>
<feOffset/>
<feGaussianBlur stdDeviation="50"/>
<feComposite in2="hardAlpha" operator="out"/>
<feColorMatrix type="matrix" values="0 0 0 0 1 0 0 0 0 0.419608 0 0 0 0 0.980392 0 0 0 0.2 0"/>
<feBlend mode="normal" in2="BackgroundImageFix" result="effect1_dropShadow_15_306"/>
<feBlend mode="normal" in="SourceGraphic" in2="effect1_dropShadow_15_306" result="shape"/>
</filter>
</defs>
</svg>
